<svg width="230" height="184" viewBox="0 0 230 184" fill="none" xmlns="http://www.w3.org/2000/svg">
<path fill-rule="evenodd" clip-rule="evenodd" d="M190.44 59.8C193.997 59.8 196.88 62.6833 196.88 66.24C196.88 69.7967 193.997 72.68 190.44 72.68H153.64C157.197 72.68 160.08 75.5633 160.08 79.12C160.08 82.6767 157.197 85.56 153.64 85.56H173.88C177.437 85.56 180.32 88.4433 180.32 92C180.32 95.5567 177.437 98.44 173.88 98.44H164.52C160.035 98.44 156.4 101.323 156.4 104.88C156.4 107.251 158.24 109.398 161.92 111.32C165.477 111.32 168.36 114.203 168.36 117.76C168.36 121.317 165.477 124.2 161.92 124.2H85.56C82.0033 124.2 79.12 121.317 79.12 117.76C79.12 114.203 82.0033 111.32 85.56 111.32H49.68C46.1233 111.32 43.24 108.437 43.24 104.88C43.24 101.323 46.1233 98.44 49.68 98.44H86.48C90.0367 98.44 92.92 95.5567 92.92 92C92.92 88.4433 90.0367 85.56 86.48 85.56H63.48C59.9233 85.56 57.04 82.6767 57.04 79.12C57.04 75.5633 59.9233 72.68 63.48 72.68H100.28C96.7233 72.68 93.84 69.7967 93.84 66.24C93.84 62.6833 96.7233 59.8 100.28 59.8H190.44ZM190.44 85.56C193.997 85.56 196.88 88.4433 196.88 92C196.88 95.5567 193.997 98.44 190.44 98.44C186.883 98.44 184 95.5567 184 92C184 88.4433 186.883 85.56 190.44 85.56Z" fill="#ECEEF0"/>
<path fill-rule="evenodd" clip-rule="evenodd" d="M91.9466 122.537L93.3174 122.49V141.808C93.3174 142.246 93.6733 142.6 94.1123 142.6H141.805C142.244 142.6 142.6 142.246 142.6 141.808V75.5826C142.6 73.9796 141.295 72.68 139.685 72.68H96.232C94.6223 72.68 93.3174 73.9796 93.3174 75.5826V89.3529L91.9466 89.3054C91.7857 89.2998 91.6243 89.2971 91.4627 89.2971C83.1504 89.2971 76.36 96.7141 76.36 105.921C76.36 115.128 83.1504 122.545 91.4627 122.545C91.6243 122.545 91.7857 122.543 91.9466 122.537ZM92.0986 116.187C91.8876 116.204 91.6755 116.212 91.4627 116.212C86.4455 116.212 82.4717 111.562 82.4717 105.921C82.4717 100.281 86.4455 95.6301 91.4627 95.6301C91.6755 95.6301 91.8876 95.6385 92.0986 95.6554L93.3174 95.7528V116.09L92.0986 116.187Z" fill="white" stroke="#616673" stroke-width="2.5" stroke-linejoin="round"/>
<path d="M135.24 78.3671V95.22M135.24 100.447V104.811V100.447Z" stroke="#BFC4CD" stroke-width="2.5" stroke-linecap="round" stroke-linejoin="round"/>
<path d="M61.7577 135.24H68.08M166.638 135.24H169.28M148.12 135.24H162.314M73.6 135.24H89.6578" stroke="#616673" stroke-width="2.5" stroke-linecap="round" stroke-linejoin="round"/>
<path d="M117.76 32.2C115.307 36.0765 114.08 39.4498 114.08 42.32C114.08 47.4317 118.361 49.7209 118.361 55.2579C118.361 58.0683 116.934 60.8587 114.08 63.6291" stroke="#BFC4CD" stroke-width="2.5" stroke-linecap="round"/>
<path d="M106.72 42.32C105.917 47.3917 109.48 48.3296 109.48 52.8766C109.48 55.1844 108.56 57.4922 106.72 59.8" stroke="#BFC4CD" stroke-width="2.5" stroke-linecap="round"/>
<path d="M124.012 39.9962C122.796 43.1418 123.479 45.0592 124.012 46.1878C125.15 48.6001 126.96 50.6824 126.96 53.1372C126.96 55.9882 125.977 58.7321 124.012 61.3687" stroke="#BFC4CD" stroke-width="2.5" stroke-linecap="round"/>
<path d="M96.6 77.36C96.6 76.8077 97.0477 76.36 97.6 76.36L115 76.36V139.84H97.6C97.0477 139.84 96.6 139.392 96.6 138.84V77.36Z" fill="#ECEEF0"/>
</svg>
