<?xml version="1.0" encoding="utf-8"?>
<!-- Generator: Adobe Illustrator 24.1.2, SVG Export Plug-In . SVG Version: 6.00 Build 0)  -->
<svg version="1.1" id="Layer_1" xmlns="http://www.w3.org/2000/svg" xmlns:xlink="http://www.w3.org/1999/xlink" x="0px" y="0px"
	 viewBox="0 0 708 416" style="enable-background:new 0 0 708 416;" xml:space="preserve">
<style type="text/css">
	.st0{fill:#FFFFFF;}
</style>
<g>
	<path class="st0" d="M194.99,161.65c-2.44-2.84-5.48-5.08-9.1-6.74c-3.63-1.65-7.84-2.48-12.65-2.48c-4.89,0-9.46,0.87-13.71,2.6
		c-4.26,1.73-8.12,4.2-11.58,7.39c-3.47,3.19-6.46,7.01-8.98,11.46c-2.52,4.45-4.53,9.4-6.03,14.83h69.14
		c0.08-0.39,0.14-1.12,0.18-2.19c0.04-1.06,0.06-2.11,0.06-3.13c0-4.18-0.61-8.14-1.83-11.88
		C199.26,167.78,197.43,164.49,194.99,161.65z"/>
	<path class="st0" d="M325.9,162.3c-2.76-3.03-6.11-5.38-10.05-7.03c-3.94-1.66-8.39-2.48-13.36-2.48c-6.54,0-12.61,1.46-18.2,4.37
		c-5.6,2.92-10.44,6.97-14.54,12.17c-4.1,5.2-7.33,11.41-9.69,18.61c-2.36,7.21-3.55,15.11-3.55,23.7c0,5.36,0.77,10.28,2.31,14.77
		c1.54,4.49,3.68,8.33,6.44,11.52c2.76,3.19,6.07,5.67,9.93,7.45c3.86,1.77,8.16,2.66,12.88,2.66c6.62,0,12.74-1.55,18.38-4.67
		c5.63-3.11,10.54-7.37,14.71-12.76c4.18-5.4,7.45-11.74,9.81-19.03c2.36-7.29,3.55-15.15,3.55-23.58c0-5.44-0.75-10.32-2.25-14.66
		C330.78,169.02,328.66,165.34,325.9,162.3z"/>
	<path class="st0" d="M407.43,103.6l10.65-50.96H105.3L54,297.65h261.52l-14.4,65.71h250.51l55.26-259.76H407.43z M223.47,190.43
		c-0.08,1.7-0.2,3.43-0.36,5.2c-0.16,1.77-0.32,3.51-0.47,5.2c-0.16,1.69-0.35,3.13-0.59,4.31h-91.83
		c-0.08,1.11-0.14,2.17-0.18,3.19c-0.04,1.03-0.06,2.09-0.06,3.19c0,6.54,0.95,12.11,2.84,16.72c1.89,4.61,4.35,8.37,7.39,11.29
		c3.03,2.92,6.44,5.02,10.22,6.32c3.78,1.3,7.6,1.95,11.46,1.95c8.43,0,15.21-1.46,20.33-4.37c5.12-2.91,9.02-6.85,11.7-11.82h21.63
		c-1.34,4.89-3.55,9.46-6.62,13.71c-3.07,4.25-6.95,7.94-11.64,11.05c-4.69,3.11-10.13,5.56-16.31,7.33
		c-6.19,1.77-12.98,2.66-20.39,2.66c-7.09,0-13.79-1.16-20.09-3.49c-6.3-2.32-11.8-5.75-16.49-10.28
		c-4.69-4.53-8.39-10.1-11.11-16.72c-2.72-6.62-4.08-14.22-4.08-22.81c0-11.74,1.63-22.44,4.9-32.09
		c3.27-9.65,7.82-17.92,13.65-24.82c5.83-6.89,12.82-12.23,20.98-16.01c8.15-3.78,17.08-5.67,26.77-5.67
		c6.54,0,12.74,1.14,18.62,3.43c5.87,2.29,11.01,5.61,15.42,9.99c4.41,4.37,7.92,9.75,10.52,16.13c2.6,6.38,3.9,13.71,3.9,21.98
		C223.59,187.26,223.55,188.74,223.47,190.43z M319.99,264.12l3.66-17.37h-1.89c-4.65,6.07-10.48,10.85-17.49,14.36
		c-7.01,3.5-14.58,5.26-22.69,5.26c-6.38,0-12.37-1.2-17.97-3.61c-5.6-2.4-10.5-5.85-14.71-10.34c-4.22-4.49-7.55-9.93-9.99-16.31
		c-2.44-6.38-3.66-13.51-3.66-21.39c0-7.64,0.77-14.95,2.3-21.92c1.54-6.97,3.72-13.43,6.56-19.38c2.84-5.95,6.24-11.33,10.22-16.13
		c3.98-4.81,8.39-8.9,13.24-12.29c4.85-3.39,10.08-5.99,15.72-7.8c5.63-1.81,11.52-2.72,17.67-2.72c4.57,0,8.92,0.63,13.06,1.89
		c4.14,1.26,7.88,3.01,11.23,5.26c3.35,2.25,6.22,4.96,8.63,8.15c2.4,3.19,4.16,6.68,5.26,10.46h1.89l15.72-74.11h20.68l-37.82,178
		H319.99z M524.79,329.87H479l-29.94-65.71h-3.74l-55.41,65.71h-45.51l86.35-102.3l-40-90.49h46.66l26.61,62.3h2.48l50.32-62.3
		h46.13l-82.43,95.02L524.79,329.87z"/>
</g>
<g>
	<path class="st0" d="M633.57,135.94c-2.26,0-4.38-0.42-6.35-1.27c-1.98-0.84-3.71-2.02-5.21-3.51c-1.5-1.5-2.67-3.23-3.51-5.21
		c-0.84-1.98-1.27-4.09-1.27-6.35c0-2.26,0.42-4.38,1.27-6.35c0.84-1.97,2.02-3.71,3.51-5.21c1.5-1.5,3.23-2.67,5.21-3.51
		c1.97-0.84,4.09-1.27,6.35-1.27c2.26,0,4.38,0.42,6.36,1.27c1.97,0.85,3.71,2.02,5.21,3.51c1.5,1.5,2.67,3.24,3.51,5.21
		c0.84,1.98,1.27,4.09,1.27,6.35c0,2.26-0.42,4.38-1.27,6.35c-0.84,1.98-2.02,3.71-3.51,5.21c-1.5,1.5-3.23,2.67-5.21,3.51
		C637.95,135.52,635.83,135.94,633.57,135.94z M633.57,132.9c2.45,0,4.68-0.6,6.69-1.8c2.01-1.2,3.61-2.8,4.81-4.81
		c1.2-2.01,1.8-4.24,1.8-6.69s-0.6-4.68-1.8-6.69s-2.8-3.61-4.81-4.81c-2.01-1.2-4.24-1.8-6.69-1.8c-2.45,0-4.68,0.6-6.69,1.8
		c-2.01,1.2-3.61,2.8-4.81,4.81c-1.2,2.01-1.8,4.24-1.8,6.69s0.6,4.68,1.8,6.69c1.2,2.01,2.8,3.61,4.81,4.81
		C628.89,132.3,631.12,132.9,633.57,132.9z M628.03,126.96v-15.08h7.23c0.76,0,1.5,0.18,2.22,0.54c0.72,0.36,1.31,0.89,1.78,1.59
		c0.47,0.7,0.71,1.56,0.71,2.59c0,1.02-0.24,1.9-0.73,2.65c-0.48,0.74-1.1,1.31-1.84,1.71c-0.74,0.4-1.51,0.59-2.3,0.59h-5.6v-2.06
		h4.9c0.69,0,1.32-0.25,1.87-0.75c0.55-0.5,0.83-1.21,0.83-2.13c0-0.95-0.28-1.63-0.83-2.04s-1.15-0.61-1.81-0.61h-3.8v13.02H628.03
		z M636.82,119.95l3.76,7.01h-2.94l-3.66-7.01H636.82z"/>
</g>
</svg>
