<svg xmlns="http://www.w3.org/2000/svg" viewBox="0 0 217.86 118.74">
<title>Credit Icon</title>
<path class="icon-fill" d="M218.42,47.81a3,3,0,0,0-2.2-2.62L110.29,16.24a3,3,0,0,0-1.58,0L2.78,45.18a3,3,0,0,0-.51,5.6l44,21.12v36.42a3,3,0,0,0,1.91,2.79l60.24,23.55a3,3,0,0,0,2.18,0l60.24-23.55a3,3,0,0,0,1.91-2.79V71.9L205,56.43v57.78a3,3,0,0,0,6,0V53.55l5.77-2.77A3,3,0,0,0,218.42,47.81ZM109.5,22.24l97,26.5a3,3,0,0,0-.83.69L109.5,95.6,12.12,48.85Zm57.24,84L109.5,128.65,52.26,106.27V74.78l55.94,26.85a3,3,0,0,0,2.6,0l55.94-26.85v31.49Z" transform="translate(-0.57 -16.13)"/>
</svg>
