<svg width="242" height="77" viewBox="0 0 242 77" fill="none" xmlns="http://www.w3.org/2000/svg">
<path d="M162.396 11.2882L129.939 0L97.3715 11.2882L129.939 22.4674L157.223 13.0333L130.756 3.98088L132.28 3.43556L158.53 12.5425L162.396 11.2882ZM158.421 16.4689C159.238 16.4689 159.891 15.8144 159.891 14.9965C159.891 14.1785 159.238 13.5241 158.421 13.5241C157.604 13.5241 156.951 14.1785 156.951 14.9965C156.951 15.869 157.604 16.4689 158.421 16.4689ZM157.386 17.1232L156.733 18.3229V28.1933L157.223 28.6295V18.8138H157.713V29.1205L158.203 29.5567V18.8683H158.639V29.6113L159.129 29.1205V18.8683H159.619V28.6841L160.055 28.2479V18.3229L159.292 17.1232H157.386Z" fill="#E51470"/>
<path d="M149.324 27.975V17.0141L129.936 23.7217V34.5191L149.324 27.975Z" fill="#E51470"/>
<path d="M110.553 27.975V17.0141L129.941 23.7217V34.5191L110.553 27.975Z" fill="#A20D61"/>
<path d="M201.225 67.0206C199.428 67.0206 197.74 66.6936 196.16 66.0391C194.635 65.3846 193.274 64.4576 192.185 63.3123C191.096 62.1127 190.224 60.7494 189.571 59.1134C188.972 57.5319 188.645 55.7324 188.645 53.8237C188.645 52.0787 188.972 50.3338 189.571 48.7523C190.17 47.1709 190.987 45.7529 192.076 44.6077C193.165 43.4081 194.472 42.4809 195.942 41.772C197.467 41.0632 199.101 40.7359 200.789 40.7359C202.696 40.7359 204.384 41.1178 205.854 41.8266C207.325 42.5355 208.577 43.517 209.612 44.7168C210.647 45.9165 211.409 47.389 211.899 48.9704C212.389 50.5519 212.662 52.2422 212.662 53.9874V55.5689H193.328C193.437 56.3869 193.655 57.1503 193.927 57.8592C194.309 58.8953 194.853 59.7679 195.561 60.5313C196.269 61.2947 197.141 61.8946 198.066 62.3308C199.047 62.767 200.136 62.9853 201.389 62.9853C202.75 62.9853 204.003 62.7127 205.201 62.2217C206.399 61.7309 207.434 60.9675 208.305 60.0405L209.013 59.2771L211.463 62.3854L210.919 62.9853C209.666 64.2941 208.25 65.2756 206.617 65.9845C205.092 66.639 203.24 67.0206 201.225 67.0206ZM182.491 67.0206C180.694 67.0206 179.278 66.4752 178.352 65.3848C177.481 64.3484 176.99 62.8762 176.99 61.0766V45.4803H173.178V41.3902H177.045V35.0101H181.402V41.3902H186.14V45.4803H181.402V60.6948C181.402 61.4582 181.565 62.0581 181.837 62.4943C182.055 62.8216 182.382 62.9853 182.927 62.9853C183.308 62.9853 183.689 62.8762 184.07 62.7126C184.397 62.5489 184.669 62.3308 184.887 62.1673L185.759 61.1856L187.61 64.8938L187.12 65.3848C186.575 65.9299 185.976 66.3117 185.268 66.639C184.451 66.8571 183.58 67.0206 182.491 67.0206ZM140.884 67.0206C139.795 67.0206 138.705 66.8571 137.616 66.4752C136.527 66.0936 135.547 65.5483 134.675 64.8394C133.804 64.0758 133.096 63.2034 132.606 62.1127C132.061 61.022 131.789 59.7679 131.789 58.4045C131.789 57.0411 132.061 55.787 132.551 54.6963C133.096 53.6056 133.804 52.6786 134.621 51.9696C135.492 51.2607 136.472 50.6608 137.507 50.3338C138.542 50.0065 139.686 49.7884 140.775 49.7884C143.498 49.7884 145.839 50.4973 147.746 51.9696V49.352C147.746 47.9343 147.255 46.8436 146.275 46.1345C145.186 45.3168 143.933 44.9349 142.409 44.9349C141.102 44.9349 139.903 45.153 138.869 45.6438C137.834 46.1348 136.799 46.8982 135.819 48.0432L135.111 48.8613L132.551 45.6438L133.096 45.0441C134.403 43.6262 135.819 42.5901 137.344 41.8812C138.869 41.1721 140.666 40.7905 142.735 40.7905C143.988 40.7905 145.186 40.954 146.33 41.2813C147.473 41.6085 148.508 42.0993 149.325 42.8081C150.196 43.517 150.904 44.3896 151.394 45.4803C151.885 46.571 152.102 47.8252 152.102 49.1885V66.4752H147.746V64.8394C145.948 66.2571 143.607 67.0206 140.884 67.0206ZM81.0867 67.0206C79.0718 67.0206 77.2747 66.6935 75.6953 66.0936C74.116 65.4937 72.7 64.4576 71.4474 63.0397L70.9028 62.44L73.5714 59.0588L74.2793 59.9314C74.9329 60.7494 75.8586 61.4582 77.0569 62.1127C78.2549 62.7126 79.5619 63.0397 81.0867 63.0397C82.8296 63.0397 84.1366 62.6581 85.0623 61.8946C85.9337 61.1856 86.3693 60.3132 86.3693 59.2225C86.3693 58.4591 86.1516 57.8592 85.6069 57.4773C84.9535 56.9866 84.1911 56.5504 83.1564 56.2231C82.1215 55.8959 80.9779 55.5689 79.6709 55.2962C78.3639 55.0235 77.1112 54.5871 75.9676 54.0963C74.7694 53.6056 73.7347 52.8967 72.9178 51.9696C72.0466 50.988 71.6107 49.6793 71.6107 48.0978C71.6107 47.0617 71.8288 46.0802 72.2644 45.2076C72.7 44.2807 73.2991 43.517 74.116 42.8081C74.9329 42.1539 75.8586 41.6629 77.0024 41.2813C78.1461 40.8995 79.3986 40.7359 80.8144 40.7359C82.9929 40.7359 84.79 41.1178 86.2606 41.8266C87.7309 42.5355 88.9291 43.4626 89.8003 44.4442L90.2904 44.9895L87.6764 48.3159L87.1318 47.389C86.5329 46.571 85.7159 45.9165 84.6812 45.4257C83.592 44.9349 82.3938 44.6623 80.9779 44.6623C79.3986 44.6623 78.1461 44.9895 77.2747 45.6438C76.4578 46.2983 76.0764 47.0071 76.0764 47.9343C76.0764 48.5886 76.2945 49.0793 76.7846 49.4066C77.438 49.8428 78.2549 50.2246 79.2351 50.5519C80.2155 50.8791 81.3048 51.1516 82.7206 51.4788C84.0276 51.7515 85.2803 52.1879 86.4239 52.733C87.6764 53.3329 88.6568 54.0964 89.4737 55.0235C90.3449 56.0596 90.7808 57.423 90.7808 59.1134C90.7808 60.1495 90.5627 61.1856 90.1271 62.1127C89.6915 63.0397 89.0379 63.9123 88.221 64.6211C87.4041 65.3302 86.3693 65.8755 85.1713 66.2571C83.9731 66.8025 82.6118 67.0206 81.0867 67.0206ZM127.214 66.4209H122.912V49.2431C122.912 47.8252 122.585 46.6799 121.986 45.9165C121.441 45.2076 120.516 44.8258 119.154 44.8258C118.61 44.8258 118.065 44.9349 117.52 45.0984C116.976 45.2622 116.431 45.5349 115.887 45.8621C115.396 46.1891 114.852 46.571 114.416 47.0071C114.035 47.389 113.708 47.7706 113.49 48.0978V66.3663H109.134V49.1885C109.134 47.7706 108.807 46.6255 108.208 45.8621C107.663 45.153 106.737 44.8258 105.376 44.8258C104.886 44.8258 104.341 44.9349 103.797 45.0984C103.252 45.3168 102.653 45.5349 102.108 45.8621C101.564 46.1891 101.073 46.571 100.638 47.0071C100.257 47.389 99.9299 47.7706 99.6576 48.1524V66.3663H95.3007V41.2813H99.6576V43.3535C100.093 43.0262 100.529 42.6446 101.073 42.3174C101.836 41.8266 102.599 41.4448 103.47 41.1721C104.396 40.8451 105.321 40.6814 106.247 40.6814C107.282 40.6814 108.153 40.8451 108.916 41.1178C109.733 41.3902 110.441 41.772 110.985 42.2628C111.584 42.7536 112.074 43.2989 112.401 43.8988C112.456 44.008 112.51 44.0623 112.565 44.1715C112.673 44.008 112.837 43.8988 113 43.7353C113.599 43.19 114.253 42.6446 115.015 42.2082C115.723 41.772 116.54 41.3902 117.357 41.1178C118.228 40.8451 119.1 40.6814 120.026 40.6814C124.764 40.6814 127.269 43.4626 127.269 48.6977V66.4209H127.214ZM221.974 66.4209H217.617V41.3359H221.974V43.8443C222.628 43.2443 223.281 42.6992 223.989 42.2628C225.405 41.3359 227.093 40.8451 228.891 40.8451H229.816V45.6984L228.672 45.3711C228.563 45.3168 228.401 45.3168 228.292 45.3168H227.638C227.148 45.3168 226.657 45.4257 226.059 45.6438C225.46 45.8621 224.861 46.1348 224.316 46.5164C223.772 46.8436 223.281 47.2798 222.791 47.7162C222.41 48.0978 222.138 48.4251 221.92 48.8067V66.4209H221.974ZM161.524 66.4209H157.222V41.3359H161.524V43.8443C162.177 43.2443 162.831 42.6992 163.539 42.2628C164.955 41.3359 166.643 40.8451 168.44 40.8451H169.366V45.6984L168.223 45.3711C168.059 45.3168 167.95 45.3168 167.841 45.3168H167.188C166.698 45.3168 166.207 45.4257 165.608 45.6438C165.009 45.8621 164.41 46.1348 163.866 46.5164C163.321 46.8436 162.831 47.2798 162.341 47.7162C161.96 48.0978 161.687 48.4797 161.469 48.8067V66.4209H161.524ZM141.755 53.4967C140.067 53.4967 138.76 53.9328 137.779 54.8598C136.799 55.787 136.309 56.9322 136.309 58.3499C136.309 59.7679 136.799 60.8585 137.725 61.7855C138.705 62.7126 140.067 63.2034 141.7 63.2034C143.008 63.2034 144.206 62.9853 145.295 62.4943C146.275 62.0581 147.147 61.4582 147.8 60.6404V56.1686C147.092 55.3508 146.221 54.6963 145.24 54.2601C144.206 53.7693 143.008 53.4967 141.755 53.4967ZM193.328 51.8061H208.25C208.196 51.2061 208.032 50.5519 207.869 49.9519C207.542 49.025 207.107 48.1524 206.453 47.389C205.8 46.6255 205.037 45.971 204.111 45.5349C203.186 45.0441 202.042 44.8258 200.789 44.8258C199.591 44.8258 198.502 45.0441 197.631 45.5349C196.705 46.0256 195.942 46.6255 195.289 47.389C194.69 48.1524 194.2 49.025 193.818 49.9519C193.546 50.5519 193.383 51.2061 193.328 51.8061Z" fill="#E51470"/>
<path d="M11.4366 75.855C10.5107 75.855 9.53046 75.8004 8.6591 75.6912C7.78774 75.5823 6.91641 75.3642 6.09951 75.0915C5.33707 74.8189 4.57461 74.437 3.81218 73.8917C3.1042 73.4009 2.39623 72.801 1.63379 72.0376L1.08919 71.4922L3.70326 68.0567L4.46571 68.9293C5.39153 70.0199 6.37179 70.7834 7.461 71.2196C8.5502 71.656 9.91169 71.8741 11.491 71.8741C12.4713 71.8741 13.3971 71.7649 14.2685 71.4922C15.0854 71.2741 15.8478 70.8925 16.4469 70.3472C17.0459 69.8019 17.5905 69.1474 17.9173 68.3293C18.2985 67.5113 18.4619 66.4752 18.4619 65.2756V64.0214C17.8628 64.5668 17.2093 65.0575 16.5013 65.4937C14.9764 66.4209 13.2337 66.9116 11.3276 66.9116C9.69384 66.9116 8.11451 66.5844 6.753 65.9845C5.33705 65.3848 4.13895 64.4576 3.1042 63.3123C2.12394 62.1673 1.36149 60.7494 0.816897 59.1679C0.2723 57.5865 0 55.787 0 53.8237C0 51.8606 0.2723 50.17 0.816897 48.534C1.36149 46.8982 2.12394 45.5349 3.1042 44.3896C4.08448 43.2443 5.33705 42.3174 6.69854 41.7175C8.06005 41.0632 9.63938 40.7905 11.3276 40.7905C13.1248 40.7905 14.8131 41.2267 16.3379 42.0447C17.1004 42.4809 17.8084 42.9717 18.4619 43.5716V41.3359H22.8186V65.2756C22.8186 67.1843 22.4919 68.8747 21.8928 70.1835C21.2938 71.5468 20.4224 72.6375 19.3332 73.5101C18.2985 74.3825 17.0459 74.9824 15.63 75.3642C14.3229 75.6912 12.907 75.855 11.4366 75.855ZM62.3019 67.0206C60.5047 67.0206 59.0889 66.4752 58.163 65.3848C57.2916 64.3484 56.8015 62.8762 56.8015 61.0766V45.4803H52.9349V41.3902H56.8015V35.0101H61.1584V41.3902H65.8964V45.4803H61.1584V60.6948C61.1584 61.4582 61.3217 62.0581 61.594 62.4943C61.8118 62.8216 62.1386 62.9853 62.6287 62.9853C63.01 62.9853 63.3911 62.8762 63.7724 62.7126C64.0992 62.5489 64.3715 62.3308 64.5893 62.1673L65.4605 61.1856L67.3122 64.8938L66.8221 65.3848C66.2775 65.9299 65.6786 66.3117 64.9704 66.639C64.2625 66.8571 63.3368 67.0206 62.3019 67.0206ZM39.5378 67.0206C37.7407 67.0206 36.0523 66.6936 34.473 66.0391C32.9482 65.3846 31.5867 64.4576 30.4974 63.3123C29.4082 62.1127 28.537 60.7494 27.8834 59.1134C27.2843 57.5319 26.9577 55.7324 26.9577 53.8237C26.9577 52.0787 27.2843 50.3338 27.8289 48.7523C28.428 47.1709 29.2994 45.7529 30.3341 44.5533C31.4234 43.4081 32.6759 42.4265 34.2007 41.7175C35.7255 41.0086 37.3594 40.6814 39.0477 40.6814C40.9539 40.6814 42.642 41.0632 44.1123 41.772C45.5828 42.4809 46.8354 43.4627 47.8701 44.6623C48.8503 45.8621 49.6129 47.2798 50.1576 48.9158C50.6477 50.4973 50.92 52.1879 50.92 53.9328V55.5143H31.5867C31.6957 56.3323 31.9135 57.0957 32.1858 57.8046C32.5669 58.8407 33.1115 59.7133 33.8196 60.4767C34.5275 61.2401 35.3444 61.8401 36.3247 62.2762C37.3049 62.7126 38.3941 62.9307 39.6466 62.9307C41.0081 62.9307 42.2607 62.6581 43.4589 62.1673C44.6569 61.6765 45.6919 60.9129 46.6176 59.9859L47.3255 59.2225L49.7762 62.3308L49.2316 62.9307C47.9791 64.2395 46.5631 65.2756 44.9837 65.9299C43.4589 66.639 41.6073 67.0206 39.5378 67.0206ZM8.71356 62.1673C9.58492 62.6035 10.6197 62.8216 11.7088 62.8216C12.4168 62.8216 13.1248 62.7126 13.7783 62.4943C14.5408 62.2762 15.1398 62.0036 15.7389 61.6765C16.3379 61.3493 16.8825 60.9129 17.3727 60.4767C17.8084 60.0951 18.1351 59.6587 18.4074 59.2225V48.4251C18.1351 47.9887 17.8084 47.6071 17.3727 47.1709C16.8825 46.7345 16.3379 46.2983 15.7389 45.971C15.1398 45.5894 14.4863 45.3168 13.7783 45.153C12.0356 44.6623 10.1295 44.7714 8.6591 45.4803C7.78774 45.9165 7.02531 46.5164 6.42625 47.3344C5.82718 48.1524 5.33707 49.0793 5.0103 50.2246C4.68354 51.3153 4.52015 52.5695 4.52015 53.8783C4.52015 55.187 4.68354 56.4412 5.0103 57.5319C5.33707 58.6226 5.82718 59.6041 6.42625 60.3678C7.07977 61.1312 7.78774 61.7309 8.71356 62.1673ZM31.6412 51.8061H46.5631C46.5086 51.2061 46.3453 50.5519 46.1275 49.9519C45.8552 49.025 45.365 48.1524 44.7114 47.389C44.058 46.6255 43.2956 45.971 42.3697 45.5349C41.444 45.0441 40.3547 44.8258 39.0477 44.8258C37.7952 44.8258 36.7603 45.0441 35.8891 45.5349C34.9631 46.0256 34.2007 46.6255 33.5473 47.389C32.8937 48.1524 32.4036 49.025 32.0768 49.9519C31.9135 50.5519 31.7499 51.2061 31.6412 51.8061Z" fill="#002137"/>
<path d="M237.223 49.0252C236.461 49.0252 235.808 48.8615 235.154 48.4799C234.5 48.098 234.009 47.6073 233.684 47.0074C233.356 46.4077 233.139 45.6986 233.139 44.9897C233.139 44.2809 233.302 43.5718 233.684 42.9721C234.064 42.3176 234.555 41.8269 235.154 41.4996C235.808 41.118 236.461 40.9543 237.169 40.9543C237.877 40.9543 238.585 41.118 239.184 41.4996C239.838 41.8814 240.329 42.3722 240.654 42.9721C241.037 43.6264 241.199 44.2809 241.199 44.9897C241.199 45.6986 241.037 46.3531 240.654 47.0074C240.329 47.6073 239.838 48.1526 239.184 48.5345C238.693 48.8071 237.986 49.0252 237.223 49.0252ZM237.223 41.5542C236.624 41.5542 236.025 41.7179 235.536 41.9904C234.991 42.3176 234.609 42.6994 234.283 43.2448C233.955 43.7355 233.847 44.3355 233.847 44.9352C233.847 45.5351 234.009 46.135 234.283 46.6258C234.609 47.1711 234.991 47.5527 235.536 47.88C236.079 48.2072 236.624 48.3161 237.223 48.3161C237.823 48.3161 238.422 48.1526 238.911 47.88C239.456 47.5527 239.838 47.1711 240.164 46.6258C240.491 46.135 240.6 45.5351 240.6 44.9352C240.6 44.3355 240.437 43.7355 240.164 43.2448C239.838 42.6994 239.456 42.3176 238.911 41.9904C238.422 41.7179 237.877 41.5542 237.223 41.5542ZM239.021 46.7893H238.148V46.7347L237.278 45.2624H236.787V46.7893H236.025V42.9175H237.169C237.66 42.9175 237.986 43.0267 238.257 43.1902C238.476 43.4083 238.585 43.681 238.585 44.0628C238.585 44.2809 238.531 44.499 238.422 44.7171C238.313 44.8808 238.148 44.9897 237.931 45.0989L239.021 46.7893ZM236.841 44.6081H237.223C237.44 44.6081 237.606 44.5536 237.714 44.4444C237.823 44.3355 237.877 44.2263 237.877 44.0628C237.877 43.8445 237.823 43.7355 237.714 43.681C237.606 43.5718 237.44 43.5718 237.169 43.5718H236.787V44.6081H236.841Z" fill="black"/>
</svg>
