<?xml version="1.0" encoding="utf-8"?>
<!-- Generator: Adobe Illustrator 25.0.0, SVG Export Plug-In . SVG Version: 6.00 Build 0)  -->
<svg version="1.1" id="Layer_1" xmlns="http://www.w3.org/2000/svg" xmlns:xlink="http://www.w3.org/1999/xlink" x="0px" y="0px"
	 viewBox="0 0 421.1 167.1" style="enable-background:new 0 0 421.1 167.1;" xml:space="preserve">
<style type="text/css">
	.st0{fill:#F90070;}
	.st1{fill:#FFFFFF;}
</style>
<g>
	<path class="st0" d="M316.9,81.2966c-2.4,0-4.8-0.4-7.1-1.4c-2.1-0.9-4-2.2-5.6-3.9c-1.6-1.7-2.8-3.7-3.7-5.9
		c-0.9-2.4-1.3-4.9-1.3-7.4c0-2.4,0.4-4.8,1.3-7.1c0.8-2.1,2-4.1,3.5-5.8s3.4-3,5.4-4c2.1-1,4.5-1.5,6.8-1.5c2.5,0,4.9,0.5,7.1,1.5
		c2,1,3.8,2.3,5.3,4.1c1.4,1.8,2.5,3.8,3.2,5.9c0.7,2.3,1.1,4.6,1.1,7v2.2h-27.2c0.1,1.1,0.4,2.2,0.8,3.2c0.5,1.4,1.3,2.7,2.3,3.8
		c1,1.1,2.2,1.9,3.5,2.5c1.5,0.6,3.1,0.9,4.7,0.9c1.8,0,3.7-0.3,5.4-1c1.7-0.7,3.2-1.8,4.4-3.1l1-1.1l3.5,4.3l-0.8,0.8
		c-1.7,1.8-3.7,3.2-6,4.2C322.1,80.8966,319.5,81.3966,316.9,81.2966z M290.6,81.2966c-2.2,0.1-4.3-0.7-5.8-2.3
		c-1.3-1.7-2-3.9-1.9-6.1v-21.8h-5.4v-5.7h5.4v-8.9h6.2v8.9h6.6v5.7h-6.6v21.4c0,0.9,0.2,1.7,0.6,2.5c0.3,0.5,0.9,0.7,1.5,0.7
		c0.5,0,1.1-0.1,1.6-0.4c0.4-0.2,0.8-0.4,1.1-0.8l1.3-1.4l2.6,5.2l-0.7,0.7c-0.8,0.8-1.7,1.4-2.6,1.8
		C293.2,81.1966,291.9,81.3966,290.6,81.2966L290.6,81.2966z M232.1,81.2966c-1.6,0-3.1-0.3-4.6-0.8s-2.9-1.3-4.1-2.3
		c-1.2-1.1-2.2-2.4-2.9-3.8c-0.8-1.6-1.1-3.4-1.1-5.2c0-1.8,0.3-3.6,1.1-5.2c0.7-1.5,1.7-2.8,2.9-3.8s2.6-1.8,4.1-2.3s3-0.7,4.6-0.7
		c3.5-0.1,7,1,9.8,3v-3.7c0.1-1.7-0.7-3.4-2.1-4.5c-1.6-1.1-3.5-1.7-5.5-1.7c-1.7,0-3.4,0.3-5,1c-1.6,0.8-3.1,1.9-4.3,3.4l-1,1.2
		l-3.6-4.5l0.8-0.8c1.7-1.9,3.7-3.4,6-4.4c2.4-1,5-1.6,7.6-1.5c1.7,0,3.4,0.2,5,0.7c1.5,0.4,3,1.1,4.3,2.1s2.2,2.3,2.9,3.8
		c0.7,1.7,1,3.4,1,5.2v24.3h-6.1v-2.2C239.1,80.2966,235.6,81.3966,232.1,81.2966L232.1,81.2966z M148.1,81.2966
		c-2.6,0-5.1-0.4-7.5-1.3c-2.3-0.9-4.4-2.4-6-4.3l-0.7-0.8l3.8-4.7l1,1.3c1.1,1.3,2.4,2.3,3.9,3c1.7,0.9,3.7,1.3,5.6,1.3
		c2,0.1,4-0.4,5.6-1.6c1.2-0.9,1.8-2.3,1.8-3.7c0.1-0.9-0.3-1.8-1-2.4c-1-0.8-2.2-1.4-3.4-1.7c-1.5-0.5-3.1-0.9-4.9-1.3
		c-1.8-0.4-3.6-0.9-5.3-1.6c-1.6-0.7-3.1-1.7-4.3-3c-1.3-1.5-1.9-3.5-1.9-5.5c0-2.9,1.3-5.6,3.5-7.4c1.2-1,2.6-1.7,4.1-2.2
		c1.7-0.5,3.5-0.8,5.3-0.8c2.6-0.1,5.3,0.4,7.7,1.6c1.9,0.9,3.6,2.1,5,3.7l0.7,0.8l-3.7,4.7l-1-1.4c-0.9-1.2-2.1-2.1-3.4-2.7
		c-1.6-0.7-3.4-1.1-5.2-1.1c-1.8-0.1-3.7,0.4-5.2,1.4c-1,0.8-1.7,2-1.6,3.3c-0.1,0.8,0.3,1.6,1,2.1c1.1,0.7,2.2,1.3,3.5,1.6
		c1.4,0.4,2.9,0.9,4.9,1.3c1.8,0.4,3.5,1,5.2,1.8c1.6,0.8,3.1,1.9,4.3,3.3c1.3,1.6,1.9,3.7,1.8,5.8c0,1.5-0.3,2.9-0.9,4.2
		c-0.6,1.4-1.5,2.6-2.7,3.5c-1.3,1-2.7,1.8-4.3,2.3C152,81.0966,150,81.3966,148.1,81.2966L148.1,81.2966z M213,80.4966h-6.1v-24.1
		c0.1-1.7-0.4-3.3-1.3-4.7c-0.8-1-2.1-1.5-4-1.5c-0.8,0-1.6,0.1-2.3,0.4c-0.8,0.3-1.6,0.6-2.3,1.1s-1.4,1-2.1,1.6
		c-0.5,0.5-0.9,1-1.3,1.6v25.6h-6.2v-24.1c0.1-1.7-0.4-3.3-1.3-4.7c-0.8-1-2.1-1.5-4-1.5c-0.8,0-1.5,0.1-2.2,0.4
		c-0.8,0.3-1.6,0.7-2.3,1.1c-0.8,0.4-1.4,1-2.1,1.6c-0.5,0.5-0.9,1-1.4,1.6v25.6H168v-35.2h6.1v2.9c0.6-0.5,1.3-1,2-1.4
		c1.1-0.7,2.2-1.2,3.4-1.6c1.2-0.4,2.6-0.7,3.9-0.7c1.3,0,2.6,0.2,3.8,0.6c1.1,0.4,2.1,0.9,2.9,1.6c0.8,0.6,1.5,1.4,2.1,2.3l0.2,0.4
		c0.2-0.2,0.4-0.4,0.6-0.6c0.9-0.8,1.8-1.5,2.8-2.1s2.2-1.1,3.3-1.5c1.2-0.4,2.5-0.6,3.8-0.6c6.7,0,10.2,3.9,10.2,11.2L213,80.4966z
		 M346.1,80.4966H340v-35.2h6.1v3.5c0.9-0.8,1.8-1.6,2.9-2.2c2-1.3,4.4-2,6.9-2h1.3v6.8l-1.6-0.5c-0.2,0-0.3-0.1-0.5-0.1h-0.9
		c-0.7,0-1.5,0.2-2.2,0.4c-0.9,0.3-1.7,0.7-2.5,1.2s-1.5,1.1-2.1,1.7c-0.5,0.5-0.9,1-1.2,1.5L346.1,80.4966L346.1,80.4966z
		 M261.2,80.4966h-6.1v-35.2h6.1v3.5c0.9-0.8,1.8-1.6,2.9-2.3c2-1.3,4.4-2,6.9-2h1.3v6.9l-1.6-0.4c-0.2,0-0.3-0.1-0.5-0.1h-1
		c-0.8,0-1.5,0.2-2.2,0.4c-1.7,0.6-3.3,1.6-4.6,2.9c-0.5,0.5-0.9,1-1.2,1.6L261.2,80.4966z M233.4,62.3966c-2.1-0.1-4.1,0.6-5.6,2
		c-1.3,1.3-2.1,3-2,4.9c-0.1,1.8,0.7,3.6,2,4.8c1.5,1.4,3.5,2.1,5.6,2c1.7,0,3.4-0.3,5-1c1.4-0.6,2.6-1.5,3.6-2.6v-6.4
		c-1-1.1-2.2-2.1-3.6-2.7C236.8,62.7966,235.1,62.3966,233.4,62.3966z M305.8,59.9966h21c-0.1-0.9-0.3-1.8-0.6-2.6
		c-0.4-1.3-1.1-2.5-2-3.6s-2-2-3.3-2.6c-1.5-0.7-3.1-1.1-4.7-1c-1.5,0-3.1,0.3-4.5,1c-1.3,0.7-2.4,1.5-3.3,2.6s-1.6,2.3-2,3.6
		C306.2,58.1966,305.9,59.0966,305.8,59.9966z"/>
	<path class="st1" d="M50.2,93.7966c-1.3,0-2.6-0.1-3.9-0.2c-1.2-0.1-2.4-0.4-3.6-0.9c-1.1-0.4-2.2-1-3.2-1.7
		c-1.1-0.8-2.1-1.6-3-2.6l-0.7-0.7l3.6-4.9l1,1.2c1.1,1.4,2.5,2.5,4.2,3.2c1.8,0.7,3.7,1,5.7,0.9c1.3,0,2.6-0.2,3.9-0.5
		c1.1-0.3,2.2-0.9,3.1-1.6c0.9-0.8,1.6-1.7,2.1-2.8c0.6-1.3,0.8-2.8,0.8-4.3v-1.8c-0.9,0.8-1.8,1.4-2.8,2c-2.2,1.3-4.7,2-7.3,2
		c-2.2,0-4.4-0.4-6.5-1.2c-2-0.9-3.7-2.1-5.1-3.7c-1.4-1.7-2.5-3.7-3.2-5.8c-0.8-2.4-1.1-4.9-1.1-7.5c0-2.5,0.3-5,1.1-7.4
		c0.7-2.1,1.8-4.1,3.2-5.8c1.4-1.6,3.1-2.9,5.1-3.8c2-0.9,4.3-1.4,6.5-1.4c2.5,0,4.9,0.6,7.1,1.8c1.1,0.6,2.1,1.3,3,2.2v-3.1h6.1
		v33.6c0.1,2.4-0.4,4.7-1.3,6.9c-0.8,1.8-2,3.4-3.6,4.7c-1.5,1.2-3.3,2.1-5.2,2.6C54.2,93.4966,52.2,93.7966,50.2,93.7966z
		 M121.7,81.2966c-2.2,0.2-4.3-0.7-5.8-2.3c-1.3-1.7-2-3.9-1.9-6.1v-21.8h-5.4v-5.7h5.4v-8.9h6.2v8.9h6.6v5.7h-6.6v21.4
		c0,0.9,0.2,1.7,0.6,2.5c0.3,0.5,0.9,0.7,1.5,0.7c0.5,0,1.1-0.1,1.6-0.4c0.4-0.2,0.8-0.5,1.1-0.8l1.3-1.4l2.6,5.2l-0.7,0.7
		c-0.8,0.7-1.7,1.3-2.6,1.8C124.4,81.1966,123,81.3966,121.7,81.2966z M89.8,81.2966c-2.4,0-4.8-0.5-7.1-1.4c-2.1-0.9-4-2.2-5.6-3.8
		c-1.6-1.7-2.8-3.7-3.6-5.9c-1.7-4.7-1.7-9.8,0-14.5c0.8-2.1,2-4.1,3.5-5.8s3.3-3,5.4-4s4.5-1.5,6.8-1.5c2.5,0,4.9,0.5,7.1,1.5
		c2,1,3.8,2.4,5.3,4.1c1.4,1.8,2.5,3.8,3.2,5.9c0.7,2.3,1.1,4.6,1.1,7v2.2H78.7c0.2,1.1,0.4,2.2,0.8,3.3c0.5,1.4,1.3,2.7,2.3,3.8
		c1,1.1,2.2,1.9,3.5,2.5c1.5,0.6,3.1,0.9,4.7,0.9c1.8,0,3.6-0.3,5.3-1c1.7-0.7,3.2-1.8,4.4-3.1l1-1.1l3.4,4.3l-0.8,0.8
		c-1.7,1.8-3.7,3.2-6,4.2C95,80.8966,92.4,81.3966,89.8,81.2966z M46.4,74.5966c1.3,0.6,2.8,0.9,4.3,0.9c1,0,2-0.1,2.9-0.4
		c1-0.3,1.9-0.7,2.8-1.2c0.8-0.5,1.6-1,2.3-1.7c0.5-0.5,1-1.1,1.5-1.8v-15.1c-0.4-0.6-0.9-1.2-1.5-1.8c-0.7-0.7-1.4-1.2-2.3-1.7
		c-0.9-0.5-1.8-0.9-2.8-1.2c-2.4-0.7-4.9-0.5-7.2,0.5c-1.2,0.6-2.3,1.5-3.1,2.6c-0.9,1.2-1.6,2.6-2,4c-1,3.3-1,6.9,0,10.3
		c0.4,1.4,1.1,2.8,2,4C44.1,73.0966,45.2,73.9966,46.4,74.5966z M78.7,59.9966h21c-0.1-0.9-0.3-1.8-0.6-2.6c-0.4-1.3-1.1-2.5-2-3.6
		s-2-2-3.3-2.6c-1.5-0.7-3.1-1.1-4.7-1c-1.5,0-3.1,0.3-4.5,1c-1.3,0.6-2.4,1.5-3.3,2.6s-1.6,2.3-2,3.6
		C79,58.1966,78.8,59.0966,78.7,59.9966z"/>
	<path class="st1" d="M373,62.5966c-1.6,0-3.2-0.4-4.6-1.2c-4.2-2.5-5.6-7.9-3.2-12.2c2.5-4.3,7.9-5.8,12.2-3.3
		c4.3,2.5,5.8,7.9,3.3,12.2C379.1,60.7966,376.2,62.5966,373,62.5966L373,62.5966z M373,46.1966c-1.3,0-2.6,0.3-3.7,1
		s-2.1,1.6-2.7,2.7c-0.7,1.1-1,2.4-1,3.7c0,2.7,1.4,5.1,3.7,6.5c2.3,1.3,5.1,1.3,7.4,0c1.1-0.7,2.1-1.6,2.7-2.7c0.7-1.1,1-2.4,1-3.7
		s-0.3-2.6-1-3.7c-0.7-1.1-1.6-2.1-2.7-2.7C375.6,46.4966,374.3,46.1966,373,46.1966z M376.9,57.5966H375v-0.1l-1.9-3.2H372v3.3
		h-1.6v-8.6h2.6c0.8-0.1,1.7,0.2,2.4,0.6c0.9,0.9,1,2.3,0.4,3.3c-0.3,0.4-0.6,0.7-1,0.8L376.9,57.5966z M372,52.8966h0.9
		c0.4,0,0.8-0.1,1.1-0.4c0.3-0.2,0.4-0.5,0.4-0.9c0-0.3-0.1-0.7-0.3-0.9c-0.4-0.2-0.8-0.3-1.2-0.3H372V52.8966z"/>
	<g>
		<path class="st1" d="M225.8,111.0966v5.4H223v-14.7h2.8v1.3c0.8-1,2-1.6,3.3-1.6c2.7,0,4.7,2,4.7,5.6s-2,5.6-4.7,5.6
			C227.7,112.7966,226.5,112.0966,225.8,111.0966z M230.8,107.1966c0-1.8-1.1-3.1-2.7-3.1c-0.9,0-1.8,0.5-2.4,1.2v3.8
			c0.6,0.7,1.5,1.2,2.4,1.2C229.8,110.2966,230.8,108.9966,230.8,107.1966z"/>
		<path class="st1" d="M235.1,107.1966c0-3,2.1-5.6,5.6-5.6s5.6,2.6,5.6,5.6s-2.1,5.6-5.6,5.6S235.1,110.1966,235.1,107.1966z
			 M243.4,107.1966c0-1.7-1-3.1-2.7-3.1s-2.7,1.4-2.7,3.1s1,3.1,2.7,3.1S243.4,108.7966,243.4,107.1966z"/>
		<path class="st1" d="M257.7,112.4966l-2.2-7.2l-2.2,7.2h-3l-3.2-10.6h2.9l2,7.1l2.3-7.1h2.5l2.4,7.1l2-7.1h2.9l-3.2,10.6H257.7z"
			/>
		<path class="st1" d="M264.6,107.1966c-0.1-3,2.3-5.5,5.2-5.6c0.1,0,0.2,0,0.3,0c3.2,0,5.3,2.4,5.3,5.9v0.6h-7.9
			c0.2,1.3,1.3,2.5,3.1,2.5c1,0,2-0.4,2.8-1.1l1.2,1.8c-1.1,1-2.7,1.5-4.4,1.5C267.1,112.7966,264.6,110.5966,264.6,107.1966z
			 M270.1,103.7966c-1.4,0-2.5,1-2.6,2.4h5.2C272.7,104.7966,271.5,103.6966,270.1,103.7966
			C270.2,103.7966,270.2,103.7966,270.1,103.7966z"/>
		<path class="st1" d="M277.5,112.4966v-10.6h2.8v1.5c0.8-1,2.1-1.7,3.4-1.7v2.7c-0.3,0-0.5-0.1-0.8-0.1c-0.9,0-2.2,0.5-2.6,1.2v7
			H277.5z"/>
		<path class="st1" d="M284.7,107.1966c-0.1-3,2.3-5.5,5.2-5.6c0.1,0,0.2,0,0.3,0c3.2,0,5.3,2.4,5.3,5.9v0.6h-7.9
			c0.2,1.3,1.3,2.5,3.1,2.5c1,0,2-0.4,2.8-1.1l1.2,1.8c-1.1,1-2.7,1.5-4.4,1.5C287.2,112.7966,284.7,110.5966,284.7,107.1966z
			 M290.2,103.7966c-1.4,0-2.5,1-2.6,2.4h5.2C292.8,104.7966,291.6,103.6966,290.2,103.7966
			C290.3,103.7966,290.2,103.7966,290.2,103.7966z"/>
		<path class="st1" d="M304.9,112.4966v-1.4c-0.8,1-2,1.6-3.3,1.6c-2.7,0-4.7-2-4.7-5.6c0-3.5,2-5.6,4.7-5.6c1.3,0,2.5,0.6,3.3,1.6
			v-5.4h2.8v14.7h-2.8V112.4966z M304.9,108.9966v-3.8c-0.6-0.8-1.5-1.2-2.4-1.2c-1.6,0-2.7,1.3-2.7,3.1s1.1,3.1,2.7,3.1
			C303.4,110.2966,304.3,109.7966,304.9,108.9966z"/>
		<path class="st1" d="M316.1,112.4966v-14.7h2.8v5.4c0.8-1,2-1.6,3.3-1.6c2.7,0,4.7,2.1,4.7,5.6s-2,5.6-4.7,5.6
			c-1.3,0-2.5-0.6-3.3-1.6v1.4L316.1,112.4966z M321.3,110.2966c1.6,0,2.7-1.2,2.7-3.1s-1.1-3.1-2.7-3.1c-0.9,0-1.8,0.5-2.4,1.2v3.8
			C319.5,109.7966,320.3,110.1966,321.3,110.2966L321.3,110.2966z"/>
		<path class="st1" d="M329,114.0966c0.3,0.1,0.6,0.2,0.9,0.2c0.7,0,1.2-0.2,1.5-0.8l0.4-0.9l-4.3-10.8h3l2.8,7.4l2.8-7.4h3l-5,12.4
			c-0.8,2-2.2,2.5-4,2.6c-0.5,0-0.9-0.1-1.4-0.2L329,114.0966z"/>
	</g>
	<path class="st1" d="M367.7971,126.5373c-11.2013,0-20.2817-9.0806-20.2817-20.2816c0-11.2015,9.0804-20.2819,20.2817-20.2819
		c11.2012,0,20.2816,9.0804,20.2816,20.2819C388.0788,117.4566,378.9984,126.5373,367.7971,126.5373 M375.1691,96.7478v13.0129
		c0,0.9764-0.7916,1.768-1.768,1.768c-0.9766,0-1.7682-0.7916-1.7682-1.768V96.7478h-4.42v12.8007
		c0,3.4176,2.7704,6.1882,6.1882,6.1882c3.4175,0,6.1882-2.7707,6.1882-6.1882V96.7478H375.1691z M368.6314,114.4773
		c-0.6331-0.6331-1.1302-1.3439-1.4775-2.1651c-0.1265-0.2992-0.2307-0.6066-0.313-0.8896h-6.4173c0,0,1.9078-1.7622,4.3227-4.1816
		c1.2059-1.2081,1.7593-2.8241,1.7593-4.406v-0.0102c0-1.5821-0.5523-3.1636-1.7593-4.3706
		c-2.4167-2.4167-6.3084-2.3637-8.7251,0.053c-1.2081,1.2084-1.7856,2.8374-1.7856,4.4287h4.4198
		c0-0.4597,0.1727-0.9579,0.518-1.3032c0.6906-0.6905,1.8099-0.717,2.5004-0.0265c0.6906,0.6905,0.6906,1.7967,0,2.4873
		c0,0-3.5293,3.4156-6.6054,6.4162c-0.5432,0.5296-0.833,1.3515-0.833,2.17c0,1.7184,1.3931,3.1631,3.1117,3.1631h13.1157
		C369.7852,115.4891,369.1703,115.0163,368.6314,114.4773 M379.7761,114.3747v-0.4412h0.3272c0.175,0,0.2738,0.0761,0.2738,0.2206
		c0,0.1293-0.0988,0.2206-0.2738,0.2206H379.7761z M379.5174,115.0518h0.2587v-0.4641h0.2816l0.3195,0.4641h0.3121l-0.3578-0.5098
		c0.1828-0.0532,0.3121-0.1901,0.3121-0.4109c0-0.2814-0.2208-0.4261-0.5175-0.4261h-0.6086V115.0518z M381.2066,114.4052
		c0,0.6467-0.5098,1.187-1.1718,1.187c-0.6696,0-1.1718-0.5327-1.1718-1.1794v-0.0076c0-0.6467,0.51-1.187,1.1718-1.187
		c0.6696,0,1.1718,0.5325,1.1718,1.1794V114.4052 M378.7109,114.4127c0,0.7228,0.5783,1.3239,1.3239,1.3239
		c0.7382,0,1.3241-0.6086,1.3241-1.3315v-0.0076c0-0.7228-0.5783-1.3241-1.3241-1.3241c-0.738,0-1.3239,0.6088-1.3239,1.3317
		V114.4127"/>
</g>
</svg>
