<svg width="224" height="147" viewBox="0 0 224 147" fill="none" xmlns="http://www.w3.org/2000/svg">
    <path d="M45.5186 25.5972H202.971C206.095 25.5972 209.092 26.8383 211.301 29.0474C213.51 31.2565 214.751 34.2527 214.751 37.3769L204.751 133.539H23.7144L33.7144 37.3769C33.7144 35.8279 34.0199 34.2941 34.6134 32.8633C35.2069 31.4325 36.0768 30.1328 37.1732 29.0387C38.2697 27.9445 39.5712 27.0773 41.0032 26.4868C42.4352 25.8963 43.9696 25.594 45.5186 25.5972Z" fill="white"/>
    <path d="M204.752 133.906H23.7158C23.618 133.906 23.5243 133.867 23.4551 133.798C23.386 133.729 23.3472 133.635 23.3472 133.538L33.3472 37.3752C33.3493 34.1518 34.6308 31.061 36.9101 28.7817C39.1894 26.5024 42.2802 25.2209 45.5036 25.2188H202.973C206.195 25.2231 209.285 26.5052 211.564 28.7841C213.843 31.0629 215.125 34.1525 215.129 37.3752L205.129 133.538C205.127 133.636 205.086 133.73 205.016 133.799C204.945 133.868 204.851 133.906 204.752 133.906ZM24.109 133.161H204.375L214.375 37.3752C214.373 34.3517 213.171 31.4526 211.033 29.3146C208.895 27.1766 205.996 25.9746 202.973 25.9724H45.52C42.4957 25.9746 39.5958 27.1764 37.4565 29.3141C35.3172 31.4518 34.1133 34.3509 34.109 37.3752L24.109 133.161Z" fill="#231F20"/>
    <path d="M203.437 35.2749H45.0503L35.0503 133.542H193.437L203.437 35.2749Z" fill="#03C7E8"/>
    <path d="M219.838 133.961H8.64014C8.57674 133.979 8.51001 133.982 8.44519 133.97C8.38038 133.958 8.31925 133.931 8.26661 133.891C8.21398 133.851 8.17128 133.8 8.14187 133.741C8.11247 133.682 8.09717 133.617 8.09717 133.551C8.09717 133.485 8.11247 133.42 8.14187 133.361C8.17128 133.302 8.21398 133.251 8.26661 133.211C8.31925 133.171 8.38038 133.144 8.44519 133.132C8.51001 133.12 8.57674 133.123 8.64014 133.141H219.838C219.902 133.123 219.969 133.12 220.033 133.132C220.098 133.144 220.159 133.171 220.212 133.211C220.265 133.251 220.307 133.302 220.337 133.361C220.366 133.42 220.381 133.485 220.381 133.551C220.381 133.617 220.366 133.682 220.337 133.741C220.307 133.8 220.265 133.851 220.212 133.891C220.159 133.931 220.098 133.958 220.033 133.97C219.969 133.982 219.902 133.979 219.838 133.961Z" fill="#231F20"/>
    <path d="M4.90413 133.541H223.573C223.573 137.017 222.192 140.351 219.734 142.809C217.276 145.267 213.943 146.648 210.467 146.648H17.9617C14.4856 146.648 11.1518 145.267 8.69384 142.809C6.23586 140.351 4.85498 137.017 4.85498 133.541H4.90413Z" fill="white"/>
    <path d="M210.494 147.003H17.9893C14.4226 146.996 11.0038 145.576 8.4825 143.053C5.96116 140.53 4.5429 137.111 4.53857 133.544C4.53855 133.445 4.57712 133.351 4.64603 133.28C4.71493 133.21 4.80869 133.169 4.9072 133.167H223.576C223.676 133.169 223.77 133.209 223.84 133.28C223.911 133.35 223.951 133.445 223.953 133.544C223.949 137.112 222.529 140.533 220.006 143.056C217.483 145.579 214.062 146.998 210.494 147.003ZM5.29221 133.896C5.39225 137.2 6.77436 140.335 9.14586 142.638C11.5174 144.941 14.692 146.23 17.9975 146.233H210.502C213.807 146.228 216.981 144.938 219.352 142.636C221.723 140.334 223.106 137.199 223.208 133.896H5.29221Z" fill="#231F20"/>
    <path d="M131.977 133.541H96.5151V136.81H131.977V133.541Z" fill="black"/>
    <path d="M52.4579 45.0614C53.9192 45.0614 55.1038 43.8768 55.1038 42.4155C55.1038 40.9542 53.9192 39.7695 52.4579 39.7695C50.9966 39.7695 49.812 40.9542 49.812 42.4155C49.812 43.8768 50.9966 45.0614 52.4579 45.0614Z" fill="#D23228"/>
    <path d="M61.4189 45.0614C62.8802 45.0614 64.0648 43.8768 64.0648 42.4155C64.0648 40.9542 62.8802 39.7695 61.4189 39.7695C59.9576 39.7695 58.7729 40.9542 58.7729 42.4155C58.7729 43.8768 59.9576 45.0614 61.4189 45.0614Z" fill="white"/>
    <path d="M70.3876 45.0614C71.8489 45.0614 73.0335 43.8768 73.0335 42.4155C73.0335 40.9542 71.8489 39.7695 70.3876 39.7695C68.9263 39.7695 67.7417 40.9542 67.7417 42.4155C67.7417 43.8768 68.9263 45.0614 70.3876 45.0614Z" fill="white"/>
    <path d="M85.6779 82.8911C85.5001 82.8923 85.3238 82.8581 85.1593 82.7906C84.9948 82.7231 84.8453 82.6236 84.7195 82.4979C84.4683 82.2421 84.3276 81.8979 84.3276 81.5395C84.3276 81.181 84.4683 80.8368 84.7195 80.581L94.9919 70.3087C95.2461 70.0555 95.5904 69.9138 95.9491 69.9146C96.3078 69.9153 96.6515 70.0585 96.9046 70.3127C97.1577 70.5669 97.2995 70.9113 97.2987 71.27C97.298 71.6287 97.1547 71.9724 96.9005 72.2255L86.6282 82.4979C86.5033 82.6226 86.3552 82.7215 86.1922 82.789C86.0291 82.8565 85.8544 82.8912 85.6779 82.8911Z" fill="white"/>
    <path d="M95.9488 82.8911C95.59 82.8916 95.2455 82.7503 94.9904 82.4979L84.718 72.2255C84.4638 71.9724 84.3206 71.6287 84.3198 71.27C84.3191 70.9113 84.4608 70.5669 84.7139 70.3127C84.967 70.0585 85.3107 69.9153 85.6695 69.9146C86.0282 69.9138 86.3725 70.0555 86.6267 70.3087L96.8991 80.581C97.0887 80.7696 97.2181 81.0101 97.271 81.2723C97.3238 81.5344 97.2978 81.8063 97.196 82.0537C97.0943 82.301 96.9215 82.5125 96.6995 82.6616C96.4775 82.8107 96.2162 82.8905 95.9488 82.8911Z" fill="white"/>
    <path d="M132.583 82.8911C132.315 82.8922 132.053 82.8135 131.829 82.665C131.606 82.5166 131.432 82.3051 131.329 82.0574C131.227 81.8098 131.2 81.5372 131.252 81.2743C131.305 81.0114 131.435 80.7701 131.625 80.581L141.897 70.3087C142.023 70.1833 142.172 70.084 142.336 70.0164C142.501 69.9488 142.677 69.9142 142.854 69.9146C143.032 69.9149 143.208 69.9503 143.372 70.0186C143.536 70.0869 143.684 70.1869 143.81 70.3127C143.935 70.4386 144.034 70.5879 144.102 70.7522C144.17 70.9164 144.204 71.0923 144.204 71.27C144.204 71.4476 144.168 71.6234 144.1 71.7873C144.032 71.9513 143.932 72.1002 143.806 72.2255L133.533 82.4979C133.409 82.6226 133.26 82.7215 133.097 82.789C132.934 82.8565 132.76 82.8912 132.583 82.8911Z" fill="white"/>
    <path d="M142.812 82.8911C142.634 82.8923 142.458 82.8581 142.293 82.7906C142.129 82.7231 141.979 82.6236 141.854 82.4979L131.581 72.2255C131.455 72.1002 131.356 71.9513 131.287 71.7873C131.219 71.6234 131.183 71.4476 131.183 71.27C131.183 71.0923 131.217 70.9164 131.285 70.7522C131.353 70.5879 131.452 70.4386 131.577 70.3127C131.703 70.1869 131.851 70.0869 132.015 70.0186C132.179 69.9503 132.355 69.9149 132.533 69.9146C132.71 69.9142 132.886 69.9488 133.051 70.0164C133.215 70.084 133.364 70.1833 133.49 70.3087L143.762 80.581C143.952 80.7696 144.081 81.0101 144.134 81.2723C144.187 81.5344 144.161 81.8063 144.059 82.0537C143.958 82.301 143.785 82.5125 143.563 82.6616C143.341 82.8107 143.08 82.8905 142.812 82.8911Z" fill="white"/>
    <path d="M202.324 49.3114H44.1591C44.0505 49.3114 43.9463 49.2682 43.8695 49.1914C43.7927 49.1146 43.7495 49.0104 43.7495 48.9018C43.7495 48.7931 43.7927 48.689 43.8695 48.6122C43.9463 48.5353 44.0505 48.4922 44.1591 48.4922H202.324C202.433 48.4922 202.537 48.5353 202.614 48.6122C202.691 48.689 202.734 48.7931 202.734 48.9018C202.734 49.0104 202.691 49.1146 202.614 49.1914C202.537 49.2682 202.433 49.3114 202.324 49.3114Z" fill="white"/>
    <path d="M67.53 106.032C67.1197 106.084 66.7051 105.978 66.3693 105.737C66.0335 105.496 65.8014 105.136 65.7195 104.731C65.6376 104.326 65.712 103.905 65.9277 103.552C66.1435 103.199 66.4847 102.941 66.8828 102.829C81.8585 96.46 97.9652 93.1772 114.239 93.1772C130.513 93.1772 146.62 96.46 161.595 102.829C161.797 102.914 161.98 103.038 162.134 103.194C162.288 103.349 162.409 103.534 162.492 103.737C162.574 103.939 162.616 104.156 162.615 104.375C162.613 104.594 162.569 104.811 162.484 105.012C162.399 105.214 162.275 105.397 162.119 105.551C161.964 105.705 161.779 105.826 161.577 105.909C161.374 105.991 161.157 106.033 160.938 106.032C160.719 106.031 160.503 105.986 160.301 105.901C145.734 99.7082 130.068 96.5163 114.239 96.5163C98.4103 96.5163 82.7441 99.7082 68.1771 105.901C67.9714 105.985 67.7519 106.029 67.53 106.032Z" fill="white"/>
    <path d="M26.237 26.0084C26.1508 26.0091 26.067 25.9802 25.9995 25.9265C25.9131 25.8612 25.8554 25.7649 25.8386 25.658C25.8218 25.551 25.8472 25.4417 25.9094 25.3531C27.3757 23.3461 29.1861 20.438 27.8344 18.128C27.7928 18.054 27.7463 17.9828 27.6952 17.915C26.2058 19.714 24.4354 21.2603 22.4525 22.4942C21.4033 23.2536 20.1126 23.6032 18.8236 23.4772C18.5498 23.4217 18.2902 23.311 18.0606 23.1518C17.8311 22.9927 17.6363 22.7884 17.4883 22.5515C17.3003 22.2123 17.1836 21.8381 17.1456 21.4521C17.1076 21.0661 17.1489 20.6764 17.2671 20.307C17.3348 20.044 17.4224 19.7866 17.5293 19.537C15.8062 21.2603 13.8581 22.7428 11.7377 23.9441C11.2795 24.239 10.7424 24.3875 10.1977 24.3701C9.76014 24.2792 9.36387 24.0488 9.06844 23.7135C8.77301 23.3782 8.59437 22.9561 8.55937 22.5105C8.51353 21.713 8.68331 20.9179 9.05087 20.2087C10.4923 17.0911 12.7272 14.4068 15.532 12.4243C18.3368 10.4419 21.613 9.2308 25.0329 8.91232C25.6423 7.38286 25.7259 5.69416 25.2704 4.11199C25.0473 3.34153 24.628 2.64214 24.0537 2.08217C23.4794 1.52221 22.7696 1.12081 21.9937 0.917228C20.5127 0.740668 19.0133 1.02682 17.7013 1.7364C10.6397 4.95031 4.86778 10.451 1.31791 17.3498C1.04261 17.7835 0.894988 18.286 0.891937 18.7997C0.905447 18.9155 0.942148 19.0274 0.999851 19.1288C1.05755 19.2301 1.13508 19.3188 1.2278 19.3895C1.27553 19.431 1.3319 19.4614 1.39283 19.4784C1.45376 19.4954 1.51771 19.4986 1.58004 19.4878C1.68867 19.4672 1.80105 19.4905 1.89246 19.5527C1.98386 19.615 2.04681 19.7109 2.06745 19.8196C2.08809 19.9282 2.06473 20.0406 2.00251 20.132C1.94029 20.2234 1.84431 20.2863 1.73568 20.307C1.55659 20.3475 1.37085 20.3487 1.19124 20.3106C1.01163 20.2724 0.84244 20.1957 0.695338 20.0858C0.337434 19.8033 0.104989 19.3914 0.0481929 18.939C0.0261783 18.263 0.205826 17.5957 0.564268 17.0221C4.20483 9.94868 10.1241 4.30939 17.3654 1.01553C18.7908 0.376575 20.4701 -0.245993 22.1412 0.0980586C23.0709 0.324187 23.925 0.790507 24.6179 1.45036C25.3108 2.11022 25.8183 2.94047 26.0896 3.85805C26.5583 5.50045 26.4981 7.2487 25.9176 8.85498C26.4582 8.85498 26.9989 8.85498 27.5559 8.85498C28.0823 8.85817 28.5998 8.99037 29.0632 9.23999C30.1281 9.90352 30.1854 11.3125 30.1281 12.0907C29.9607 13.936 29.2985 15.7019 28.2112 17.2023C28.3352 17.3548 28.4474 17.5163 28.5471 17.6856C30.1363 20.3889 28.1867 23.6164 26.5811 25.8118C26.5457 25.8715 26.4953 25.9211 26.435 25.9555C26.3747 25.99 26.3065 26.0082 26.237 26.0084ZM24.6724 9.76426C21.4668 10.1342 18.4105 11.3234 15.7978 13.2172C13.1851 15.1111 11.1042 17.6458 9.75535 20.5773C9.45416 21.1555 9.30744 21.8016 9.32939 22.4532C9.34523 22.7209 9.44706 22.9763 9.61975 23.1815C9.79244 23.3866 10.0267 23.5306 10.2878 23.5918C10.6671 23.5885 11.0372 23.4747 11.3527 23.2642C14.7195 21.4374 17.4228 18.6031 20.0277 15.8916C21.6988 14.0239 23.5747 12.0907 24.6724 9.76426ZM23.9925 16.3176C23.5744 16.3163 23.1572 16.3575 22.7474 16.4405C21.6681 16.6334 20.6616 17.1165 19.8361 17.8381C19.0106 18.5597 18.3972 19.4925 18.0617 20.5363C17.9723 20.8039 17.9371 21.0866 17.9582 21.3679C17.9793 21.6492 18.0562 21.9235 18.1846 22.1747C18.2738 22.3203 18.393 22.4453 18.5343 22.5413C18.6755 22.6374 18.8355 22.7023 19.0038 22.7317C20.0709 22.8192 21.1349 22.5293 22.0101 21.9125C23.9647 20.6719 25.6979 19.1131 27.1381 17.3006C26.2394 16.6061 25.1279 16.2443 23.9925 16.2767V16.3176ZM23.9925 15.4984C25.3069 15.4621 26.5939 15.8785 27.6378 16.678C28.5795 15.3204 29.1447 13.7377 29.2762 12.0907C29.2762 11.6156 29.2762 10.4524 28.5963 10.0018C28.2489 9.8249 27.8638 9.73495 27.474 9.73969C26.8438 9.70282 26.2119 9.70282 25.5817 9.73969C24.4922 12.3037 22.518 14.4089 20.7404 16.293C21.3189 16.01 21.9295 15.7982 22.559 15.6623C23.023 15.5452 23.4979 15.4766 23.9761 15.4575L23.9925 15.4984Z" fill="#F0CC00"/>
</svg>
