<svg xmlns="http://www.w3.org/2000/svg" viewBox="0 0 219 151">
  <title>Verified Icon</title>
  <g>
    <path class="icon-fill" d="M108,38H37a3,3,0,0,0,0,6h71A3,3,0,0,0,108,38Z"/>
    <path class="icon-fill" d="M108,64H37a3,3,0,0,0,0,6h71A3,3,0,0,0,108,64Z"/>
    <path class="icon-fill" d="M108,90H37a3,3,0,0,0,0,6h71A3,3,0,0,0,108,90Z"/>
    <path class="icon-fill" d="M219,42A42,42,0,0,0,153.33,7.33,3,3,0,0,0,152,7H3a3,3,0,0,0-3,3V125a3,3,0,0,0,3,3H146v20a3,3,0,0,0,5.12,2.12l25.41-25.41,12,11.69c3.55,3.44,7.11,6.88,9.79,9.46C203.71,151,203.71,151,205,151a3,3,0,0,0,3-3V71a3,3,0,0,0-.07-0.62A41.84,41.84,0,0,0,219,42Zm-6,0A36,36,0,1,1,177,6,36,36,0,0,1,213,42ZM6,122V13H146.66a41.9,41.9,0,0,0-.6,57.38A3,3,0,0,0,146,71v51H6Zm172.59-3.65a3,3,0,0,0-4.21,0L152,140.76v-65a41.91,41.91,0,0,0,50,0V141C196.07,135.33,186,125.54,178.59,118.35Z"/>
    <path class="icon-fill" d="M170.88,56.12a3,3,0,0,0,4.24,0l21-21a3,3,0,0,0-4.24-4.24L173,49.76,161.12,37.88a3,3,0,1,0-4.24,4.24Z"/>
  </g>
</svg>
