<?xml version="1.0" encoding="UTF-8"?>
<svg width="220px" height="152px" viewBox="0 0 220 152" version="1.1" xmlns="http://www.w3.org/2000/svg" xmlns:xlink="http://www.w3.org/1999/xlink">
    <!-- Generator: Sketch 63 (92445) - https://sketch.com -->
    <title>xseries-stacked</title>
    <desc>Created with Sketch.</desc>
    <g id="Page-1" stroke="none" stroke-width="1" fill="none" fill-rule="evenodd">
        <g id="xseries-stacked" fill="#424242" fill-rule="nonzero">
            <g id="Group">
                <path d="M219.9,42.4 C219.9,19.2 201.1,0.4 177.9,0.4 C169.1,0.4 161,3.1 154.2,7.7 C153.8,7.5 153.3,7.4 152.9,7.4 L3.9,7.4 C2.2,7.4 0.9,8.7 0.9,10.4 L0.9,125.4 C0.9,127.1 2.2,128.4 3.9,128.4 L146.9,128.4 L146.9,148.4 C146.9,149.6 147.6,150.7 148.8,151.2 C149.2,151.4 149.6,151.4 149.9,151.4 C150.7,151.4 151.4,151.1 152,150.5 L177.4,125.1 C180,127.7 184.7,132.2 189.4,136.8 C193,140.2 196.5,143.7 199.2,146.3 C204.5,151.4 204.5,151.4 205.8,151.4 C207.5,151.4 208.8,150.1 208.8,148.4 L208.8,71.4 C208.8,71.2 208.8,71 208.7,70.8 C215.7,63.3 219.9,53.3 219.9,42.4 Z M213.9,42.4 C213.9,62.3 197.8,78.4 177.9,78.4 C158,78.4 141.9,62.3 141.9,42.4 C141.9,22.5 158,6.4 177.9,6.4 C197.8,6.4 213.9,22.6 213.9,42.4 Z M6.9,122.4 L6.9,13.4 L147.6,13.4 C140.4,20.9 135.9,31.2 135.9,42.4 C135.9,53.3 140.1,63.3 147,70.8 C147,71 146.9,71.2 146.9,71.4 L146.9,122.4 L6.9,122.4 Z M179.5,118.8 C178.3,117.7 176.4,117.7 175.3,118.8 L152.9,141.2 L152.9,76.2 C159.9,81.4 168.5,84.5 177.9,84.5 C187.3,84.5 195.9,81.4 202.9,76.2 L202.9,141.5 C197,135.7 186.9,126 179.5,118.8 Z" id="Shape"></path>
                <path d="M171.8,56.5 C172.4,57.1 173.2,57.4 173.9,57.4 C174.6,57.4 175.4,57.1 176,56.5 L197,35.5 C198.2,34.3 198.2,32.4 197,31.3 C195.8,30.1 193.9,30.1 192.8,31.3 L173.9,50.2 L162,38.3 C160.8,37.1 158.9,37.1 157.8,38.3 C156.6,39.5 156.6,41.4 157.8,42.5 L171.8,56.5 Z" id="Path"></path>
                <path d="M109.9,99.4 L105.3,99.4 L78.3,67.9 L106.2,35.4 L109.1,35.4 C110.8,35.4 112.1,34.1 112.1,32.4 C112.1,30.7 110.8,29.4 109.1,29.4 L93.7,29.4 C92,29.4 90.7,30.7 90.7,32.4 C90.7,34.1 92,35.4 93.7,35.4 L98.3,35.4 L74.3,63.3 L50.4,35.4 L54.2,35.4 C55.9,35.4 57.2,34.1 57.2,32.4 C57.2,30.7 55.9,29.4 54.2,29.4 L38.8,29.4 C37.1,29.4 35.8,30.7 35.8,32.4 C35.8,34.1 37.1,35.4 38.8,35.4 L42.6,35.4 L70.5,67.9 L43.5,99.4 L38,99.4 C36.3,99.4 35,100.7 35,102.4 C35,104.1 36.3,105.4 38,105.4 L55.1,105.4 C56.8,105.4 58.1,104.1 58.1,102.4 C58.1,100.7 56.8,99.4 55.1,99.4 L51.3,99.4 L74.3,72.5 L97.3,99.4 L92.7,99.4 C91,99.4 89.7,100.7 89.7,102.4 C89.7,104.1 91,105.4 92.7,105.4 L109.8,105.4 C111.5,105.4 112.8,104.1 112.8,102.4 C112.8,100.7 111.6,99.4 109.9,99.4 Z" id="Path"></path>
            </g>
        </g>
    </g>
</svg>