<svg width="400" height="300" viewBox="0 0 400 300" fill="none" xmlns="http://www.w3.org/2000/svg">
<path d="M142.391 280.468C164.079 280.468 181.661 278.107 181.661 275.193C181.661 272.28 164.079 269.918 142.391 269.918C120.703 269.918 103.121 272.28 103.121 275.193C103.121 278.107 120.703 280.468 142.391 280.468Z" fill="#E6E7E8"/>
<path d="M312.946 280.468C334.634 280.468 352.215 278.107 352.215 275.193C352.215 272.28 334.634 269.918 312.946 269.918C291.257 269.918 273.676 272.28 273.676 275.193C273.676 278.107 291.257 280.468 312.946 280.468Z" fill="#E6E7E8"/>
<path d="M140.18 257.339C140.18 257.339 147.006 278.226 148.216 277.83C149.425 277.434 173.725 263.363 172.922 260.955C172.12 258.548 155.246 263.566 155.246 263.566L151.447 252.32" fill="white"/>
<path d="M148.235 278.367C148.124 278.369 148.014 278.343 147.914 278.292C146.406 277.533 141.687 263.505 139.729 257.512C139.705 257.445 139.696 257.374 139.7 257.302C139.705 257.231 139.724 257.162 139.756 257.098C139.788 257.034 139.832 256.977 139.886 256.931C139.94 256.884 140.003 256.849 140.071 256.828C140.207 256.787 140.354 256.801 140.48 256.867C140.606 256.933 140.701 257.046 140.745 257.181C143.656 266.083 147.219 275.895 148.31 277.233C151.617 275.821 172.311 263.173 172.45 261.076C172.161 260.22 164.821 261.29 155.447 264.082C155.314 264.118 155.172 264.102 155.05 264.039C154.927 263.976 154.832 263.869 154.784 263.74L150.975 252.494C150.93 252.359 150.94 252.212 151.001 252.084C151.063 251.956 151.173 251.858 151.306 251.809C151.443 251.768 151.59 251.78 151.717 251.844C151.844 251.908 151.943 252.018 151.991 252.152L155.64 262.852C170.866 258.368 173.188 259.866 173.477 260.712C173.691 261.343 174.13 262.649 161.707 270.524C155.586 274.387 149.177 278.014 148.492 278.26C148.415 278.313 148.328 278.35 148.235 278.367Z" fill="#231F20"/>
<path d="M111.255 222.395C111.255 222.395 97.1953 222.598 96.7994 223.796C96.4035 224.995 92.1769 247.337 95.9969 245.496C99.8169 243.656 106.034 231.03 106.034 231.03L113.064 229.96L111.255 222.395Z" fill="white"/>
<path d="M95.5827 246.124C95.2912 246.122 95.0101 246.016 94.7908 245.824C92.1693 243.491 96.0321 224.424 96.2889 223.621C96.4173 223.236 96.8132 222.059 111.269 221.855C111.389 221.861 111.505 221.902 111.6 221.975C111.696 222.048 111.767 222.148 111.804 222.262L113.613 229.806C113.642 229.949 113.616 230.099 113.538 230.223C113.497 230.286 113.444 230.339 113.381 230.38C113.318 230.421 113.248 230.447 113.174 230.458L106.411 231.528C105.491 233.38 99.927 244.251 96.2461 245.995C96.0372 246.087 95.8106 246.13 95.5827 246.124ZM97.284 224.049C96.7169 226.007 93.678 243.406 95.5078 245.021C95.5078 245.021 95.5827 245.096 95.7646 245.021C98.7606 243.609 103.843 234.321 105.555 230.812C105.591 230.734 105.646 230.666 105.716 230.616C105.785 230.565 105.866 230.533 105.951 230.523L112.371 229.453L110.798 222.904C104.742 223.032 98.1828 223.471 97.284 224.049Z" fill="#231F20"/>
<path d="M191.266 57.8459L197.279 54.4004C197.279 54.4004 198.97 48.9861 200.671 47.6806C202.372 46.3752 204.716 48.1515 204.716 48.1515C204.716 48.1515 210.933 42.9618 212.431 43.1331C213.929 43.3043 211.949 45.9579 210.419 47.2954L207.209 50.1096C207.209 50.1096 210.023 55.8449 208.397 58.1027C206.77 60.3604 193.673 67.337 193.673 67.337L191.266 57.8459Z" fill="white"/>
<path d="M193.648 67.8585C193.573 67.8686 193.497 67.8686 193.423 67.8585C193.35 67.8229 193.285 67.7719 193.233 67.7092C193.182 67.6464 193.144 67.5732 193.123 67.4947L190.748 58.0143C190.718 57.9028 190.727 57.7847 190.771 57.6783C190.816 57.5719 190.894 57.4831 190.994 57.4258L196.826 54.098C197.189 53.028 198.687 48.5767 200.303 47.2926C201.919 46.0086 203.845 47.0251 204.647 47.5173C206.424 46.0514 210.95 42.4775 212.448 42.638C212.663 42.6483 212.87 42.7233 213.042 42.8531C213.214 42.9829 213.342 43.1616 213.411 43.3657C213.817 44.6604 211.56 47.0144 210.747 47.7421L207.836 50.2887C208.489 51.7011 210.372 56.2808 208.799 58.4637C207.226 60.6465 195.242 67.1309 193.894 67.8478C193.814 67.8721 193.729 67.8758 193.648 67.8585ZM191.882 58.1106L194.022 66.5317C197.992 64.3916 206.745 59.4588 207.932 57.7789C209.12 56.0989 207.44 51.8509 206.702 50.2887C206.651 50.1822 206.636 50.0621 206.659 49.9463C206.682 49.8305 206.742 49.7254 206.83 49.6467L210.04 46.8432C211.485 45.5699 212.501 43.9649 212.394 43.6332C211.57 43.5583 207.932 46.137 205.033 48.5553C204.938 48.6299 204.821 48.6705 204.701 48.6705C204.581 48.6705 204.464 48.6299 204.369 48.5553C204.369 48.5553 202.304 47.0251 200.977 48.0738C199.65 49.1224 198.249 53.0815 197.767 54.4939C197.723 54.6227 197.636 54.7323 197.521 54.8042L191.882 58.1106Z" fill="#231F20"/>
<path d="M118.422 93.0902C123.13 95.7225 191.034 56.0781 191.034 56.0781L201.145 66.5429L132.396 116.342L118.422 93.0902Z" fill="#D23228"/>
<path d="M141.307 92.4297C141.307 92.4297 100.913 92.4297 90.5021 100.722C82.7873 106.864 81.332 149.687 81.332 149.687L158.459 143.673C158.459 143.673 162.889 98.5288 141.307 92.4297Z" fill="#D23228"/>
<path d="M147.176 117.434C147.045 117.434 146.92 117.382 146.828 117.29C146.735 117.198 146.684 117.073 146.684 116.942V95.9375C146.684 95.807 146.735 95.6818 146.828 95.5895C146.92 95.4972 147.045 95.4453 147.176 95.4453C147.306 95.4453 147.432 95.4972 147.524 95.5895C147.616 95.6818 147.668 95.807 147.668 95.9375V116.942C147.668 117.073 147.616 117.198 147.524 117.29C147.432 117.382 147.306 117.434 147.176 117.434Z" fill="#231F20"/>
<path d="M234.62 205.591C233.957 205.067 210.01 202.617 208.523 203.077C207.035 203.537 201.032 223.332 201.15 225.023C201.343 228.404 214.568 214.858 214.568 214.858L234.62 218.881" fill="white"/>
<path d="M201.577 226.094C201.471 226.116 201.362 226.116 201.256 226.094C201.06 226.02 200.893 225.886 200.778 225.711C200.662 225.536 200.605 225.33 200.614 225.121C200.539 223.858 206.296 203.281 208.372 202.65C209.934 202.169 234.052 204.533 234.951 205.261C235.061 205.349 235.132 205.477 235.148 205.618C235.164 205.758 235.124 205.899 235.037 206.01C234.956 206.112 234.841 206.182 234.713 206.205C234.585 206.229 234.453 206.205 234.341 206.138C232.661 205.507 210.03 203.324 208.661 203.677C207.377 204.662 201.556 223.419 201.663 225.078C202.733 225.409 209.003 219.845 214.161 214.57C214.223 214.505 214.301 214.457 214.387 214.431C214.473 214.404 214.565 214.401 214.653 214.42L234.694 218.411C234.834 218.44 234.957 218.522 235.037 218.64C235.117 218.758 235.148 218.903 235.122 219.043C235.108 219.112 235.081 219.177 235.042 219.235C235.002 219.294 234.952 219.343 234.893 219.382C234.835 219.421 234.769 219.448 234.7 219.461C234.631 219.475 234.56 219.474 234.491 219.46L214.728 215.522C211.368 218.893 204.028 226.094 201.577 226.094Z" fill="#231F20"/>
<path d="M323.336 253.256C323.336 253.951 329.852 274.86 331.757 275.191C333.662 275.523 360.498 267.059 358.283 265.561C356.068 264.063 343.923 265.165 343.923 265.165L337.45 247.777" fill="white"/>
<path d="M331.769 275.726H331.662C329.137 275.277 322.813 253.502 322.802 253.256C322.791 253.114 322.837 252.973 322.929 252.865C323.021 252.757 323.153 252.689 323.295 252.678C323.437 252.667 323.577 252.712 323.686 252.804C323.794 252.897 323.861 253.028 323.873 253.17C324.172 255.064 330.293 273.811 331.908 274.646C332.625 274.742 338.243 273.233 345.187 270.933C352.678 268.439 356.797 266.652 357.728 265.85C355.727 265.005 348.547 265.272 343.978 265.679C343.862 265.691 343.745 265.663 343.647 265.601C343.548 265.539 343.472 265.446 343.433 265.336L337.012 247.97C336.978 247.903 336.958 247.829 336.954 247.754C336.951 247.679 336.963 247.604 336.99 247.533C337.017 247.463 337.059 247.399 337.112 247.346C337.166 247.293 337.23 247.252 337.3 247.226C337.371 247.199 337.446 247.188 337.521 247.192C337.597 247.197 337.67 247.217 337.737 247.252C337.803 247.287 337.862 247.336 337.909 247.395C337.955 247.454 337.989 247.522 338.008 247.595L344.331 264.577C346.717 264.384 356.497 263.667 358.638 265.101C358.794 265.197 358.911 265.346 358.966 265.521C359.021 265.696 359.011 265.885 358.937 266.053C357.835 268.696 334.048 275.726 331.769 275.726Z" fill="#231F20"/>
<path d="M295.101 153.305C295.101 153.305 284.529 232.605 273.701 230.186C262.872 227.768 219.547 218.555 219.547 218.555L223.463 201.435C223.463 201.435 254.291 204.709 258.399 205.009C262.508 205.308 259.619 149.699 259.619 149.699L295.101 153.305Z" fill="#231F20"/>
<path d="M274.17 230.77C273.965 230.769 273.761 230.748 273.56 230.705C262.86 228.33 219.845 219.16 219.417 219.074C219.277 219.043 219.154 218.959 219.075 218.839C218.997 218.718 218.971 218.572 219 218.432L222.916 201.312C222.948 201.186 223.024 201.075 223.129 200.999C223.235 200.922 223.364 200.886 223.494 200.895C223.804 200.895 254.364 204.18 258.419 204.468C260.56 203.398 260.42 175.803 259.072 149.715C259.066 149.64 259.077 149.564 259.105 149.493C259.133 149.423 259.176 149.36 259.233 149.309C259.289 149.254 259.356 149.212 259.43 149.186C259.504 149.16 259.583 149.151 259.661 149.159L295.153 152.776C295.227 152.781 295.298 152.803 295.362 152.838C295.427 152.873 295.483 152.921 295.528 152.979C295.571 153.034 295.603 153.098 295.622 153.166C295.64 153.234 295.645 153.305 295.635 153.375C295.26 156.221 286.24 223.033 276.096 230.117C275.536 230.526 274.864 230.753 274.17 230.77ZM220.166 218.143C225.163 219.213 263.727 227.42 273.796 229.667C274.093 229.717 274.397 229.704 274.688 229.628C274.979 229.553 275.251 229.417 275.486 229.229C284.774 222.734 293.602 160.309 294.501 153.771L260.164 150.283C260.549 157.869 262.614 201.825 259.169 205.196C259.062 205.309 258.932 205.396 258.788 205.454C258.644 205.511 258.489 205.536 258.334 205.528C254.546 205.25 227.763 202.414 223.858 201.997L220.166 218.143Z" fill="#231F20"/>
<path d="M285.465 159.522L322.659 264.737L343.567 253.523L311.52 153.305L285.465 159.522Z" fill="#231F20"/>
<path d="M322.651 265.272C322.588 265.284 322.522 265.284 322.459 265.272C322.385 265.245 322.318 265.203 322.262 265.147C322.207 265.092 322.164 265.025 322.138 264.951L284.954 159.736C284.925 159.666 284.91 159.592 284.91 159.516C284.91 159.441 284.925 159.366 284.954 159.297C285.033 159.166 285.16 159.07 285.307 159.029L311.352 152.813C311.484 152.78 311.623 152.799 311.741 152.867C311.859 152.935 311.946 153.046 311.983 153.176L344.084 253.395C344.121 253.513 344.116 253.641 344.069 253.757C344.022 253.872 343.936 253.967 343.827 254.026L322.908 265.24C322.827 265.273 322.738 265.284 322.651 265.272ZM286.163 159.907L322.94 263.977L342.917 253.277L311.159 153.936L286.163 159.907Z" fill="#231F20"/>
<path d="M316.039 111.43L329.061 107.15C328.462 106.273 321.892 86.0919 314.08 82.2506C307.264 77.7351 294.67 78.5911 280.418 79.5862C275.845 79.8114 271.336 80.7501 267.053 82.3683C251.003 88.7884 248.691 109.921 248.691 109.921L263.511 115.09C263.511 115.09 261.114 143.841 258.857 158.875C258.857 158.875 276.919 165.723 317.291 159.035C317.301 158.96 316.114 115.678 316.039 111.43Z" fill="#D23228"/>
<path d="M299.115 87.7109L284.659 120.7L281.117 88.8773L299.115 87.7109Z" fill="#231F20"/>
<path d="M284.662 121.235H284.587C284.47 121.217 284.363 121.161 284.282 121.076C284.201 120.991 284.15 120.881 284.137 120.764L280.595 88.9311C280.585 88.7892 280.626 88.6482 280.713 88.5352C280.759 88.4794 280.816 88.4336 280.881 88.4005C280.945 88.3674 281.015 88.3477 281.088 88.3426L299.107 87.1763C299.198 87.1724 299.288 87.1909 299.37 87.23C299.452 87.2692 299.523 87.3279 299.578 87.401C299.631 87.4763 299.664 87.5642 299.673 87.6561C299.683 87.748 299.668 87.8407 299.631 87.9253L285.197 120.914C285.151 121.016 285.075 121.101 284.979 121.159C284.884 121.216 284.773 121.243 284.662 121.235ZM281.719 89.4126L284.929 118.71L298.283 88.3426L281.719 89.4126Z" fill="#231F20"/>
<path d="M306.674 46.211C304.88 44.1724 302.53 42.7032 299.912 41.9845C297.293 41.2658 294.522 41.329 291.939 42.1663C287.36 43.6429 283.187 46.2003 278.596 47.6662C274.006 49.1321 268.592 49.3247 264.793 46.3715C264.816 47.4753 265.076 48.5612 265.553 49.5567C266.031 50.5521 266.715 51.4341 267.561 52.1433C268.407 52.8526 269.395 53.3728 270.459 53.6692C271.522 53.9655 272.637 54.0312 273.728 53.8616C273.556 54.9317 272.101 55.0922 271.063 54.8675C270.025 54.6428 268.699 54.386 268.057 55.242C267.887 55.527 267.787 55.8474 267.763 56.1779C267.739 56.5084 267.792 56.84 267.917 57.1466C268.699 59.7254 271.053 61.4267 273.268 62.9889C276.478 65.2039 279.688 65.664 282.962 67.1941C286.429 68.8313 289.018 71.0997 292.999 71.6561C296.619 72.1434 300.289 71.2411 303.271 69.1309C305.144 67.804 308.953 65.9957 308.204 63.1494C307.84 61.8012 310.215 59.2332 310.344 57.2536C310.53 55.2592 310.3 53.2479 309.668 51.347C309.036 49.4462 308.017 47.6972 306.674 46.211Z" fill="white"/>
<path d="M294.828 72.2897C294.177 72.2917 293.526 72.2452 292.881 72.1506C290.319 71.6759 287.878 70.6937 285.701 69.2615C284.749 68.7051 283.754 68.1915 282.684 67.6351C281.506 67.0985 280.299 66.6304 279.067 66.2334C276.892 65.5809 274.82 64.6226 272.914 63.3871C270.443 61.6751 268.163 59.9202 267.361 57.2666C267.208 56.8793 267.148 56.4612 267.187 56.0466C267.226 55.6319 267.363 55.2323 267.586 54.8804C267.894 54.5306 268.293 54.2726 268.738 54.1348C269.184 53.997 269.659 53.9847 270.111 54.0993C269.055 53.7521 268.075 53.2075 267.222 52.4943C266.293 51.7514 265.544 50.8084 265.031 49.7357C264.518 48.6629 264.254 47.4881 264.258 46.2988C264.258 46.2001 264.287 46.1036 264.34 46.0203C264.393 45.937 264.468 45.8703 264.557 45.828C264.647 45.7875 264.747 45.772 264.845 45.7833C264.943 45.7946 265.036 45.8323 265.114 45.8922C269.619 49.3912 275.932 47.9039 278.436 47.1014C280.703 46.3611 282.922 45.482 285.081 44.4691C287.255 43.4136 289.492 42.4917 291.779 41.7084C294.458 40.8364 297.333 40.7679 300.05 41.5114C302.768 42.2549 305.208 43.7778 307.069 45.8922C308.459 47.4285 309.515 49.2363 310.171 51.2014C310.827 53.1666 311.068 55.2464 310.879 57.3094C310.67 58.451 310.241 59.5412 309.616 60.5194C309.113 61.4397 308.546 62.4883 308.685 62.9912C309.413 65.7519 306.609 67.5602 304.566 68.8763C304.202 69.1117 303.849 69.3364 303.549 69.5504C300.991 71.3339 297.947 72.2899 294.828 72.2897ZM269.49 55.1693C269.305 55.1484 269.117 55.1714 268.943 55.2365C268.768 55.3016 268.611 55.4068 268.484 55.5438C268.376 55.7658 268.315 56.0081 268.305 56.2551C268.296 56.5021 268.339 56.7482 268.431 56.9777C269.126 59.2996 271.256 60.9261 273.567 62.5311C275.392 63.712 277.378 64.6237 279.463 65.2383C280.728 65.6588 281.971 66.1445 283.187 66.6935C284.257 67.2071 285.327 67.7635 286.279 68.352C288.336 69.718 290.647 70.6568 293.074 71.1127C296.557 71.5666 300.084 70.7 302.961 68.6837C303.271 68.459 303.635 68.2236 304.031 67.9775C305.903 66.7684 308.225 65.2703 307.69 63.2694C307.455 62.3492 308.032 61.2685 308.76 60.0593C309.278 59.1735 309.633 58.2024 309.809 57.1917C309.982 55.2796 309.758 53.3522 309.151 51.5309C308.543 49.7096 307.565 48.0339 306.278 46.6092C304.553 44.65 302.292 43.2383 299.775 42.5481C297.258 41.8579 294.593 41.9194 292.111 42.725C289.863 43.4931 287.665 44.4008 285.53 45.4428C283.332 46.501 281.074 47.4299 278.767 48.2249C273.61 49.8727 268.805 49.5838 265.392 47.4759C265.683 49.1605 266.577 50.6819 267.907 51.756C268.676 52.437 269.59 52.9351 270.58 53.2131C271.569 53.491 272.609 53.5416 273.621 53.361C273.704 53.3449 273.791 53.3492 273.873 53.3734C273.955 53.3976 274.03 53.441 274.091 53.5001C274.158 53.5573 274.207 53.631 274.235 53.7137C274.264 53.7965 274.269 53.8853 274.252 53.9709C274.215 54.1886 274.134 54.3963 274.012 54.5806C273.89 54.7649 273.731 54.9217 273.546 55.0409C272.755 55.4846 271.824 55.6072 270.946 55.3833C270.468 55.2661 269.981 55.1944 269.49 55.1693Z" fill="#231F20"/>
<path d="M283.721 78.7082L281.131 88.8734C281.131 88.8734 284.01 95.5075 290.879 94.2235C297.749 92.9395 299.118 87.8034 299.129 87.8034L300.285 76.857L301.002 70.1266C301.182 69.4353 301.265 68.7222 301.248 68.0079C300.82 66.4778 298.904 65.6432 298.348 64.0596C297.235 60.8874 297.384 57.4088 298.765 54.3438C295.898 56.655 292.602 59.009 288.921 58.7629C289.664 57.9842 290.334 57.1389 290.922 56.2377L283.721 58.8057C282.786 59.1137 281.826 59.3427 280.853 59.4906C279.783 59.6939 280.2 59.0197 279.387 60.3252C277.376 63.5352 277.097 69.078 277.504 72.7695C278.082 78.0126 283.721 78.7082 283.721 78.7082Z" fill="white"/>
<path d="M289.113 94.8916C283.239 94.8916 280.66 89.1456 280.639 89.0921C280.596 88.9782 280.596 88.8528 280.639 88.739L283.089 79.1088C281.559 78.7343 277.504 77.3218 277.001 72.6886C276.583 68.9329 276.862 63.3259 278.97 59.9019L279.023 59.8056C279.526 59.0031 279.687 58.7355 280.286 58.8318C280.451 58.8718 280.623 58.8718 280.789 58.8318C281.733 58.688 282.663 58.4661 283.571 58.1684L290.772 55.5897C290.878 55.5532 290.993 55.5512 291.101 55.5838C291.209 55.6165 291.303 55.6822 291.371 55.7716C291.434 55.8628 291.468 55.971 291.468 56.0819C291.468 56.1928 291.434 56.301 291.371 56.3922C290.985 56.9782 290.567 57.5426 290.119 58.0828C293.18 57.8046 295.983 55.7502 298.401 53.8027C298.496 53.7281 298.613 53.6875 298.733 53.6875C298.853 53.6875 298.97 53.7281 299.065 53.8027C299.163 53.8737 299.233 53.977 299.262 54.0945C299.291 54.2119 299.278 54.336 299.225 54.4448C297.904 57.3898 297.763 60.729 298.829 63.7754C299.135 64.4759 299.596 65.0979 300.177 65.5944C300.885 66.188 301.427 66.9548 301.75 67.82C301.831 68.3927 301.791 68.9759 301.633 69.5321C301.633 69.7461 301.558 69.9387 301.536 70.0885L299.664 87.7653C299.664 87.7653 298.273 93.2973 290.997 94.7097C290.376 94.8309 289.746 94.8918 289.113 94.8916ZM281.687 88.8246C282.18 89.8197 284.898 94.7953 290.772 93.6611C297.246 92.4092 298.594 87.6262 298.605 87.5727L300.466 69.9815C300.466 69.7996 300.531 69.5749 300.573 69.3288C300.685 68.9323 300.732 68.5204 300.712 68.1089C300.433 67.4229 299.984 66.8191 299.407 66.3541C298.723 65.7682 298.178 65.0371 297.813 64.2141C296.878 61.5292 296.8 58.6206 297.588 55.8893C295.041 57.8046 292.12 59.4846 288.867 59.2706C288.766 59.2643 288.668 59.2287 288.586 59.1678C288.505 59.107 288.442 59.0237 288.407 58.9281C288.37 58.8331 288.361 58.7295 288.38 58.6293C288.399 58.529 288.445 58.4361 288.514 58.361C288.846 58.0186 289.167 57.6655 289.467 57.291L283.892 59.2813C282.958 59.5975 281.999 59.8303 281.024 59.9768C280.748 60.0206 280.466 60.0206 280.189 59.9768L279.901 60.4369L279.847 60.5225C278.007 63.5185 277.611 68.7617 278.028 72.6351C278.552 77.4395 283.571 78.1672 283.785 78.1886C283.86 78.1995 283.932 78.2261 283.997 78.2666C284.061 78.3072 284.117 78.3608 284.159 78.424C284.202 78.4855 284.231 78.5557 284.244 78.6297C284.257 78.7036 284.254 78.7795 284.234 78.852L281.687 88.8246Z" fill="#231F20"/>
<path d="M282.355 84.063C283.514 84.3452 284.723 84.3407 285.879 84.0498C287.035 83.7589 288.103 83.1905 288.99 82.3938C292.114 79.6438 291.996 77.2148 291.996 77.2148C289.534 78.7572 286.572 79.2936 283.725 78.7129L282.355 84.063Z" fill="#231F20"/>
<path d="M284.127 84.8184C283.495 84.8277 282.865 84.7484 282.255 84.583C282.123 84.5431 282.012 84.4542 281.945 84.3347C281.877 84.2152 281.858 84.0742 281.891 83.9409L283.25 78.5908C283.267 78.5226 283.298 78.4585 283.34 78.4022C283.383 78.3459 283.436 78.2985 283.496 78.2627C283.557 78.2269 283.624 78.2035 283.694 78.1937C283.764 78.1839 283.835 78.1879 283.903 78.2056C286.607 78.7276 289.409 78.2077 291.746 76.7504C291.824 76.6962 291.915 76.6641 292.009 76.6575C292.104 76.6509 292.198 76.67 292.283 76.7128C292.367 76.7556 292.438 76.8205 292.489 76.9006C292.54 76.9807 292.568 77.073 292.57 77.1677C292.57 77.2747 292.666 79.8856 289.36 82.7746C287.928 84.0785 286.064 84.8065 284.127 84.8184ZM283.057 83.6734C284.061 83.8298 285.086 83.7612 286.059 83.4725C287.033 83.1838 287.93 82.6823 288.686 82.0042C289.902 81.0212 290.818 79.7161 291.329 78.2377C289.126 79.3862 286.61 79.7881 284.159 79.3826L283.057 83.6734Z" fill="#231F20"/>
<path d="M287.981 62.7227C287.981 62.7227 284 67.7304 284.771 68.7255C285.541 69.7206 287.981 69.2926 287.981 69.2926" fill="white"/>
<path d="M286.836 69.9275C286.384 69.9708 285.929 69.9179 285.499 69.7722C285.069 69.6265 284.675 69.3913 284.343 69.0822C283.498 68.0122 285.627 64.8021 287.553 62.416C287.596 62.3602 287.649 62.3136 287.711 62.2789C287.772 62.2443 287.839 62.2223 287.909 62.2143C287.979 62.2063 288.05 62.2125 288.117 62.2324C288.185 62.2524 288.248 62.2857 288.302 62.3304C288.412 62.4186 288.483 62.5469 288.499 62.6872C288.515 62.8275 288.475 62.9685 288.388 63.0794C286.536 65.412 285.038 67.9266 285.177 68.4295C285.584 68.9538 287.146 68.8896 287.82 68.7719C287.961 68.75 288.104 68.7836 288.22 68.8655C288.336 68.9474 288.415 69.0712 288.441 69.2106C288.453 69.2802 288.452 69.3515 288.436 69.4205C288.421 69.4894 288.392 69.5547 288.351 69.6124C288.31 69.6701 288.258 69.7191 288.199 69.7567C288.139 69.7942 288.072 69.8196 288.002 69.8312C287.616 69.8894 287.226 69.9215 286.836 69.9275Z" fill="#231F20"/>
<path d="M292.282 63.9397C292.767 63.9377 293.157 63.3803 293.155 62.6948C293.152 62.0093 292.757 61.4552 292.272 61.4573C291.787 61.4593 291.397 62.0166 291.4 62.7022C291.403 63.3877 291.798 63.9417 292.282 63.9397Z" fill="#231F20"/>
<path d="M284.817 62.33C285.016 61.6741 284.802 61.0282 284.338 60.8874C283.874 60.7466 283.337 61.1642 283.138 61.8202C282.939 62.4761 283.153 63.1219 283.617 63.2627C284.081 63.4035 284.618 62.9859 284.817 62.33Z" fill="#231F20"/>
<path d="M287.221 73.8925C284.563 73.7754 281.999 72.8785 279.848 71.3138C279.788 71.2728 279.736 71.2198 279.697 71.1582C279.658 71.0966 279.632 71.0276 279.62 70.9555C279.608 70.8834 279.612 70.8097 279.63 70.7389C279.648 70.6681 279.68 70.6018 279.725 70.544C279.769 70.4862 279.825 70.4381 279.889 70.4028C279.953 70.3674 280.024 70.3455 280.096 70.3385C280.169 70.3314 280.243 70.3393 280.312 70.3616C280.382 70.384 280.446 70.4203 280.501 70.4685C280.747 70.6611 286.589 75.0909 291.64 71.3459C291.695 71.2949 291.76 71.2562 291.832 71.2322C291.903 71.2082 291.978 71.1995 292.053 71.2066C292.128 71.2138 292.201 71.2367 292.266 71.2737C292.331 71.3108 292.388 71.3612 292.433 71.4217C292.478 71.4822 292.509 71.5514 292.525 71.6249C292.541 71.6983 292.541 71.7743 292.526 71.8479C292.511 71.9215 292.48 71.9911 292.436 72.0521C292.392 72.1131 292.336 72.1641 292.271 72.2019C290.818 73.304 289.044 73.898 287.221 73.8925Z" fill="#231F20"/>
<path d="M298.299 67.0918C298.706 66.6938 299.188 66.381 299.717 66.1715C300.246 65.9621 300.812 65.8603 301.381 65.872C301.952 65.8978 302.503 66.087 302.97 66.417C303.436 66.7471 303.799 67.2041 304.013 67.7338C304.163 68.3592 304.151 69.0125 303.979 69.6322C303.807 70.2518 303.48 70.8174 303.029 71.2756C302.384 72.0129 301.592 72.607 300.703 73.0198C299.815 73.4326 298.85 73.6549 297.871 73.6725" fill="white"/>
<path d="M297.867 74.2291C297.725 74.2291 297.589 74.1727 297.489 74.0724C297.389 73.972 297.332 73.8359 297.332 73.6941C297.331 73.6243 297.343 73.555 297.369 73.4901C297.395 73.4253 297.433 73.3662 297.482 73.3164C297.531 73.2665 297.589 73.227 297.653 73.2C297.718 73.1729 297.787 73.159 297.856 73.159C298.761 73.1463 299.653 72.9424 300.474 72.5607C301.295 72.179 302.025 71.6281 302.618 70.9441C303.006 70.5556 303.29 70.0754 303.444 69.5479C303.597 69.0205 303.615 68.4628 303.495 67.9266C303.319 67.499 303.023 67.1308 302.644 66.8654C302.265 66.6 301.818 66.4485 301.355 66.4286C300.859 66.4165 300.365 66.505 299.903 66.6889C299.442 66.8728 299.022 67.1482 298.67 67.4986C298.568 67.5973 298.432 67.6525 298.29 67.6525C298.148 67.6525 298.012 67.5973 297.91 67.4986C297.86 67.4489 297.82 67.3897 297.793 67.3245C297.766 67.2593 297.752 67.1894 297.752 67.1188C297.752 67.0481 297.766 66.9782 297.793 66.913C297.82 66.8478 297.86 66.7886 297.91 66.7389C298.372 66.2933 298.919 65.9453 299.518 65.7155C300.117 65.4857 300.757 65.3789 301.398 65.4014C302.071 65.4369 302.72 65.6644 303.268 66.0569C303.816 66.4494 304.24 66.9905 304.491 67.6163C304.679 68.3304 304.68 69.0812 304.492 69.7956C304.305 70.5099 303.936 71.1637 303.421 71.6931C302.725 72.4881 301.87 73.1283 300.912 73.5725C299.954 74.0167 298.913 74.2549 297.856 74.2719L297.867 74.2291Z" fill="#231F20"/>
<path d="M156.925 172.098C156.925 172.098 169.07 221.961 161.055 225.428C153.041 228.895 107.436 235.561 107.436 235.561L105.371 221.18C105.371 221.18 140.457 213.497 142.372 211.753C144.288 210.009 130.602 167.636 130.281 167.294C129.96 166.951 156.925 172.098 156.925 172.098Z" fill="#231F20"/>
<path d="M107.434 236.102C107.322 236.099 107.213 236.062 107.123 235.995C107.066 235.953 107.018 235.901 106.981 235.84C106.944 235.779 106.92 235.712 106.909 235.642L104.834 221.261C104.814 221.127 104.847 220.99 104.924 220.879C105.002 220.768 105.118 220.69 105.251 220.662C118.765 217.708 140.69 212.562 142.006 211.363C143.076 209.041 131.006 170.05 129.829 167.578C129.779 167.496 129.753 167.401 129.753 167.305C129.753 167.209 129.779 167.114 129.829 167.032C130.075 166.561 130.14 166.433 157.04 171.58C157.141 171.598 157.234 171.645 157.308 171.715C157.382 171.786 157.434 171.876 157.457 171.976C158.72 177.123 169.484 222.374 161.288 225.926C153.295 229.393 109.403 235.824 107.541 236.091L107.434 236.102ZM105.968 221.603L107.894 234.936C113.009 234.176 153.445 228.13 160.839 224.92C162.572 224.171 164.947 219.624 161.47 197.539C159.64 185.972 156.976 174.619 156.484 172.543C147.442 170.82 134.462 168.391 131.103 167.888C133.435 173.966 143.205 205.799 143.087 211.01C143.107 211.212 143.085 211.417 143.022 211.61C142.96 211.803 142.858 211.981 142.723 212.134C140.829 213.888 111.286 220.437 105.968 221.603Z" fill="#231F20"/>
<path d="M100.914 170.389L138.889 260.089L155.25 256.932L130.393 162.246L100.914 170.389Z" fill="#231F20"/>
<path d="M138.882 260.618C138.778 260.617 138.676 260.587 138.589 260.53C138.502 260.473 138.432 260.392 138.39 260.297L100.414 170.587C100.386 170.516 100.373 170.44 100.375 170.364C100.378 170.288 100.396 170.213 100.43 170.145C100.463 170.076 100.51 170.015 100.568 169.966C100.627 169.917 100.694 169.88 100.768 169.859L130.236 161.727C130.302 161.698 130.373 161.684 130.445 161.684C130.516 161.684 130.587 161.698 130.653 161.727C130.773 161.799 130.861 161.914 130.899 162.048L155.724 256.809C155.746 256.879 155.751 256.953 155.74 257.025C155.729 257.097 155.701 257.166 155.66 257.226C155.622 257.29 155.57 257.345 155.51 257.387C155.449 257.43 155.38 257.459 155.307 257.473L138.989 260.618H138.882ZM101.645 170.736L139.203 259.473L154.579 256.51L129.969 162.904L101.645 170.736Z" fill="#231F20"/>
<path d="M114.33 52.7816C111.596 50.855 108.316 49.8568 104.972 49.9338C101.628 50.0109 98.3973 51.1591 95.7548 53.2096C93.7466 54.7806 92.2217 56.8856 91.355 59.2835C90.4882 61.6813 90.3146 64.2748 90.8541 66.7668C91.5419 69.2136 92.9852 71.3805 94.9779 72.9581C96.9706 74.5358 99.4109 75.4435 101.95 75.5516C106.862 75.7977 112.03 71.5926 114.641 67.7405C117.797 63.0859 119.916 56.6336 114.33 52.7816Z" fill="white"/>
<path d="M102.366 76.0979H101.917C99.265 75.9925 96.7148 75.0491 94.6327 73.4034C92.5506 71.7577 91.0437 69.4943 90.3286 66.9385C89.7749 64.3451 89.9585 61.6484 90.8587 59.154C91.7589 56.6596 93.3396 54.4671 95.4219 52.8249C98.1567 50.6871 101.509 49.4895 104.979 49.4104C108.45 49.3314 111.853 50.3751 114.682 52.3862C121.488 57.0408 117.208 64.8841 115.067 68.0086C112.425 71.9783 107.353 76.0979 102.366 76.0979ZM105.223 50.4174C101.902 50.4229 98.6804 51.5545 96.0853 53.6274C94.1641 55.1408 92.7041 57.1611 91.8703 59.4602C91.0365 61.7594 90.862 64.2458 91.3665 66.6389C92.0179 68.979 93.3961 71.0516 95.302 72.5575C97.2079 74.0634 99.5431 74.9247 101.97 75.0172C106.464 75.2205 111.536 71.3791 114.201 67.4414C116.159 64.5417 120.064 57.3725 114.03 53.2315C111.442 51.4374 108.372 50.471 105.223 50.4602V50.4174Z" fill="#231F20"/>
<path d="M104.453 60.9389C102.683 62.494 101.34 64.4769 100.553 66.6986C99.7662 68.9202 99.5618 71.3063 99.9594 73.6294C100.107 74.9173 100.706 76.1113 101.65 76.9999C103.544 78.5408 106.412 77.6419 108.445 76.2937C111.728 73.9939 114.435 70.9651 116.352 67.4446C117.775 64.9622 119.926 59.366 116.074 57.9856C112.222 56.6053 107.278 58.4992 104.453 60.9389Z" fill="#231F20"/>
<path d="M104.074 78.3357C103.074 78.3608 102.097 78.0352 101.313 77.4155C100.258 76.4514 99.5915 75.1346 99.4404 73.7132C99.022 71.2986 99.2313 68.817 100.048 66.5066C100.865 64.1963 102.262 62.1347 104.106 60.5198C107.048 57.9839 112.313 56.0578 116.261 57.4703C116.772 57.6352 117.24 57.9132 117.629 58.2837C118.018 58.6542 118.319 59.1077 118.508 59.6103C119.578 62.6492 117.117 67.1647 116.818 67.6676C114.866 71.2636 112.104 74.3556 108.75 76.6986C107.377 77.6747 105.756 78.2423 104.074 78.3357ZM113.34 58.0802C110.203 58.1851 107.19 59.3336 104.78 61.3438C103.085 62.8404 101.801 64.7464 101.052 66.88C100.303 69.0135 100.113 71.3034 100.5 73.5313C100.621 74.6934 101.152 75.7744 101.998 76.5809C103.678 77.9398 106.278 77.0838 108.172 75.8426C111.389 73.5934 114.037 70.626 115.908 67.1754C116.86 65.5061 118.283 62.1249 117.513 60.0276C117.384 59.6648 117.171 59.3373 116.893 59.0715C116.614 58.8058 116.277 58.6092 115.908 58.4975C115.083 58.2096 114.214 58.0684 113.34 58.0802Z" fill="#231F20"/>
<path d="M124.25 91.3086C123.406 92.1258 122.517 92.8939 121.585 93.6092C119.741 94.6893 117.652 95.2843 115.515 95.3386C113.379 95.3928 111.263 94.9046 109.366 93.9195C100.324 89.2649 100.538 78.6931 102.41 70.0901C103.17 66.5911 105.728 59.2935 110.446 62.9423C109.066 61.8723 114.726 58.3305 115.593 57.9988C121.607 55.5485 127.995 59.0688 131.515 63.9588C133.597 66.7546 135.363 69.7727 136.78 72.9577C138.171 76.4674 136.651 81.2825 134.64 84.2679C133.085 86.5813 130.933 88.4302 128.412 89.618C127.246 90.1637 125.748 90.3028 124.667 90.9769L124.25 91.3086Z" fill="white"/>
<path d="M115.292 95.8338C113.149 95.8363 111.036 95.3263 109.129 94.3465C101.639 90.4944 99.1992 82.2873 101.885 69.9393C102.249 68.27 103.672 62.7273 106.829 61.5717C107.323 61.4003 107.849 61.3383 108.37 61.39C108.891 61.4417 109.395 61.6059 109.846 61.8713C110.713 60.0309 115.078 57.5912 115.389 57.4628C121.884 54.8198 128.529 58.7896 131.953 63.6047C134.075 66.4276 135.87 69.4825 137.303 72.7106C138.769 76.3915 137.217 81.4099 135.163 84.4809C133.566 86.8771 131.346 88.7932 128.743 90.0236C128.183 90.2689 127.603 90.4658 127.009 90.6121C126.332 90.7755 125.677 91.0235 125.062 91.3504C124.923 91.4467 124.783 91.543 124.655 91.65C124.28 91.9307 123.923 92.2345 123.585 92.5595C123.073 93.0924 122.507 93.5694 121.894 93.9827C119.909 95.2016 117.622 95.8426 115.292 95.8338ZM107.984 62.4384C107.714 62.4368 107.446 62.4839 107.192 62.5775C105.052 63.3479 103.586 67.1465 102.912 70.164C100.344 81.9342 102.591 89.7989 109.589 93.3942C111.404 94.3382 113.428 94.8077 115.473 94.7591C117.517 94.7104 119.517 94.1452 121.285 93.116C121.83 92.7408 122.339 92.3144 122.804 91.8426C123.143 91.4923 123.5 91.1601 123.874 90.8475C124.035 90.7203 124.203 90.6024 124.377 90.4944C125.071 90.0961 125.822 89.804 126.603 89.6277C127.141 89.4932 127.667 89.3142 128.175 89.0927C130.611 87.9467 132.69 86.1603 134.189 83.9245C136.094 81.0461 137.549 76.4343 136.233 73.1065C134.863 69.9787 133.148 67.0141 131.118 64.2681C127.908 59.7848 121.777 56.0718 115.827 58.5007C114.757 58.9287 110.745 61.7108 110.798 62.5133C110.853 62.5555 110.899 62.608 110.934 62.6679C110.968 62.7278 110.99 62.794 110.999 62.8625C111.008 62.9311 111.004 63.0007 110.986 63.0675C110.968 63.1343 110.937 63.1968 110.895 63.2516C110.852 63.3064 110.8 63.3524 110.74 63.3869C110.68 63.4214 110.614 63.4437 110.545 63.4527C110.477 63.4616 110.407 63.457 110.34 63.439C110.274 63.421 110.211 63.3901 110.156 63.3479C109.549 62.825 108.785 62.52 107.984 62.4812V62.4384Z" fill="#231F20"/>
<path d="M130.972 71.0216C130.972 71.0216 134.513 78.7364 133.657 84.9319C133.46 86.6491 132.767 88.2718 131.663 89.6019C130.559 90.9319 129.092 91.9119 127.441 92.422L128.371 103.122C128.371 103.122 128.906 108.601 122.112 108.344C120.14 108.267 118.221 107.688 116.535 106.662C114.85 105.636 113.455 104.197 112.482 102.48L110.031 82.856C110.031 82.856 117.265 77.8162 115.981 70.7969C115.981 70.7969 125.407 74.4243 130.972 71.0216Z" fill="white"/>
<path d="M122.557 108.902H122.075C120.012 108.825 118.003 108.218 116.241 107.141C114.48 106.063 113.025 104.551 112.017 102.749C112.013 102.692 112.013 102.635 112.017 102.578L109.545 82.9321C109.53 82.8355 109.543 82.7364 109.583 82.6471C109.623 82.5578 109.688 82.482 109.77 82.4291C109.834 82.4291 116.693 77.4963 115.495 70.905C115.481 70.811 115.49 70.715 115.521 70.6254C115.553 70.5358 115.606 70.4554 115.677 70.3914C115.752 70.3336 115.84 70.2955 115.933 70.2806C116.027 70.2656 116.122 70.2743 116.212 70.3058C116.308 70.3058 125.467 73.762 130.732 70.5733C130.8 70.5444 130.872 70.5296 130.946 70.5296C131.019 70.5296 131.092 70.5444 131.16 70.5733C131.233 70.5945 131.3 70.6314 131.358 70.6813C131.415 70.7312 131.461 70.7929 131.492 70.8622C131.641 71.1832 135.098 78.7911 134.231 85.0507C134.017 86.7952 133.327 88.4471 132.236 89.825C131.145 91.203 129.695 92.2537 128.046 92.8619L128.945 103.155C128.99 103.888 128.891 104.622 128.652 105.316C128.413 106.01 128.04 106.65 127.554 107.2C126.886 107.817 126.096 108.287 125.236 108.58C124.375 108.873 123.462 108.983 122.557 108.902ZM113.012 102.342C113.94 103.954 115.263 105.304 116.856 106.264C118.449 107.224 120.259 107.764 122.118 107.831C122.94 107.941 123.776 107.872 124.568 107.628C125.36 107.384 126.091 106.972 126.709 106.419C127.472 105.53 127.856 104.378 127.779 103.209L126.848 92.5088C126.839 92.3816 126.874 92.2553 126.949 92.1517C127.023 92.0481 127.131 91.9738 127.254 91.9416C128.808 91.4638 130.188 90.5395 131.221 89.2839C132.254 88.0282 132.895 86.4966 133.065 84.8795C133.771 79.8397 131.417 73.6443 130.657 71.8145C125.863 74.2756 118.962 72.403 116.575 71.6326C117.132 77.7531 111.825 82.1723 110.541 83.1461L113.012 102.342Z" fill="#231F20"/>
<path d="M113.632 81.1507C113.632 81.1507 109.662 74.0029 106.345 79.0106C103.028 84.0183 108.913 88.6408 112.187 87.956" fill="white"/>
<path d="M111.453 88.5744C110.345 88.4977 109.27 88.1685 108.309 87.6121C107.349 87.0557 106.528 86.2868 105.91 85.3644C105.214 84.3924 104.84 83.2268 104.84 82.0312C104.84 80.8357 105.214 79.6701 105.91 78.6981C106.216 78.105 106.675 77.6046 107.239 77.2489C107.804 76.8933 108.453 76.6954 109.12 76.6758C111.827 76.7828 114.032 80.6991 114.128 80.8703C114.162 80.9321 114.183 81 114.19 81.07C114.198 81.14 114.192 81.2108 114.172 81.2784C114.152 81.346 114.119 81.409 114.075 81.4638C114.03 81.5186 113.976 81.5642 113.914 81.5979C113.852 81.6316 113.784 81.6528 113.714 81.6603C113.644 81.6678 113.573 81.6614 113.506 81.6416C113.438 81.6217 113.375 81.5887 113.321 81.5445C113.266 81.5003 113.22 81.4457 113.186 81.3839C112.641 80.3995 110.822 77.81 109.078 77.7458C108.6 77.7835 108.14 77.9456 107.744 78.2158C107.348 78.4861 107.029 78.8553 106.82 79.2866C106.241 80.0808 105.93 81.038 105.93 82.0205C105.93 83.0031 106.241 83.9602 106.82 84.7545C108.093 86.5949 110.447 87.7933 112.095 87.4295C112.237 87.3983 112.385 87.4247 112.508 87.503C112.63 87.5812 112.716 87.7049 112.748 87.8468C112.779 87.9887 112.752 88.1372 112.674 88.2596C112.596 88.382 112.472 88.4683 112.33 88.4995C112.042 88.5592 111.747 88.5844 111.453 88.5744Z" fill="#231F20"/>
<path d="M127.503 85.8712C127.004 85.8696 126.507 85.8267 126.015 85.7428C125.945 85.7309 125.878 85.7052 125.818 85.6673C125.757 85.6294 125.705 85.5799 125.664 85.5218C125.622 85.4637 125.593 85.398 125.577 85.3285C125.561 85.259 125.559 85.1871 125.571 85.1169C125.583 85.0466 125.609 84.9794 125.647 84.919C125.685 84.8587 125.734 84.8064 125.792 84.7652C125.85 84.724 125.916 84.6946 125.986 84.6787C126.055 84.6629 126.127 84.6609 126.197 84.6728C127.193 84.8709 128.223 84.8007 129.183 84.4695C129.183 83.8489 127.588 81.5483 125.673 79.419C125.623 79.3702 125.584 79.3119 125.557 79.2476C125.53 79.1833 125.516 79.1142 125.516 79.0445C125.516 78.9747 125.53 78.9057 125.557 78.8414C125.584 78.7771 125.623 78.7188 125.673 78.67C125.723 78.6198 125.782 78.58 125.847 78.5529C125.912 78.5257 125.982 78.5117 126.053 78.5117C126.123 78.5117 126.193 78.5257 126.259 78.5529C126.324 78.58 126.383 78.6198 126.433 78.67C127.364 79.74 130.392 83.1962 130.188 84.63C130.175 84.7668 130.131 84.8987 130.058 85.0156C129.986 85.1324 129.888 85.2311 129.771 85.3041C129.079 85.691 128.296 85.8867 127.503 85.8712Z" fill="#231F20"/>
<path d="M125.23 89.409C124.872 89.4114 124.514 89.3864 124.16 89.3341C122.237 89.053 120.488 88.0694 119.248 86.5735C119.179 86.45 119.161 86.304 119.199 86.1677C119.238 86.0313 119.328 85.9155 119.451 85.8459C119.576 85.7793 119.721 85.7634 119.856 85.8012C119.992 85.8391 120.107 85.928 120.179 86.0492C121.295 87.2813 122.811 88.0776 124.459 88.2962C126.599 88.5423 128.611 87.6863 130.569 85.7817C130.617 85.726 130.677 85.681 130.743 85.6494C130.81 85.6177 130.882 85.6002 130.956 85.5979C131.03 85.5956 131.103 85.6085 131.171 85.6359C131.24 85.6633 131.302 85.7045 131.354 85.757C131.406 85.8095 131.446 85.8722 131.472 85.941C131.499 86.0098 131.511 86.0834 131.507 86.157C131.504 86.2307 131.485 86.3028 131.453 86.369C131.42 86.4351 131.374 86.4938 131.318 86.5414C129.746 88.2628 127.558 89.2935 125.23 89.409Z" fill="#231F20"/>
<path d="M127.442 92.4297C127.442 92.4297 121.782 93.6495 118.422 93.0931C118.422 93.0931 122.702 101.225 128.18 100.701L127.442 92.4297Z" fill="#231F20"/>
<path d="M127.681 101.255C122.224 101.255 118.126 93.6794 117.954 93.3477C117.902 93.2623 117.875 93.1642 117.875 93.0642C117.875 92.9641 117.902 92.8661 117.954 92.7806C118.015 92.7013 118.095 92.6396 118.187 92.6019C118.28 92.5643 118.38 92.5521 118.479 92.5666C121.689 93.0909 127.242 91.9139 127.296 91.9032C127.371 91.8865 127.45 91.8864 127.526 91.9031C127.601 91.9197 127.673 91.9526 127.734 91.9995C127.795 92.0432 127.845 92.0991 127.882 92.1637C127.919 92.2283 127.941 92.3 127.948 92.374L128.687 100.645C128.694 100.716 128.688 100.787 128.667 100.854C128.647 100.922 128.614 100.985 128.569 101.04C128.524 101.095 128.469 101.14 128.406 101.173C128.344 101.207 128.276 101.227 128.205 101.234L127.681 101.255ZM119.431 93.765C120.662 95.7125 123.861 100.185 127.606 100.185L126.964 93.0695C124.485 93.5703 121.959 93.7964 119.431 93.7436V93.765Z" fill="#231F20"/>
<path d="M122.433 79.7303C122.895 79.6644 123.177 78.9565 123.062 78.1491C122.947 77.3418 122.479 76.7407 122.017 76.8065C121.554 76.8724 121.273 77.5803 121.388 78.3876C121.503 79.195 121.971 79.7961 122.433 79.7303Z" fill="#231F20"/>
<path d="M130.152 78.6326C130.614 78.5667 130.896 77.8588 130.78 77.0515C130.665 76.2441 130.197 75.643 129.735 75.7089C129.273 75.7747 128.992 76.4826 129.107 77.29C129.222 78.0974 129.69 78.6985 130.152 78.6326Z" fill="#231F20"/>
<path d="M310.249 111.091L222.678 65.2726C221.845 64.8359 220.906 64.6423 219.968 64.7137C219.03 64.7852 218.131 65.1188 217.373 65.6766C216.616 66.2344 216.03 66.9939 215.684 67.8685C215.337 68.743 215.243 69.6974 215.413 70.6227L218.826 89.8831L72.1262 115.885C71.724 115.956 71.3398 116.105 70.9955 116.325C70.6513 116.545 70.3539 116.831 70.1202 117.166C69.8866 117.501 69.7215 117.878 69.6342 118.277C69.5469 118.676 69.5392 119.089 69.6117 119.491L82.805 193.825C82.9485 194.635 83.4079 195.355 84.0821 195.827C84.7563 196.298 85.5901 196.483 86.4003 196.34L233.111 170.306L236.524 189.566C236.69 190.488 237.111 191.344 237.738 192.039C238.365 192.734 239.174 193.239 240.073 193.499C240.972 193.758 241.926 193.761 242.827 193.506C243.728 193.252 244.539 192.751 245.17 192.06L311.64 118.902C312.152 118.333 312.527 117.655 312.737 116.92C312.947 116.184 312.987 115.41 312.853 114.657C312.718 113.903 312.414 113.191 311.963 112.573C311.512 111.955 310.926 111.448 310.249 111.091Z" fill="white"/>
<path d="M85.8548 196.922C85.1114 196.917 84.3872 196.686 83.7789 196.258C83.3861 195.987 83.0514 195.64 82.7942 195.237C82.5369 194.835 82.3625 194.385 82.2809 193.915L69.0554 119.57C68.9723 119.099 68.9828 118.616 69.0862 118.15C69.1897 117.683 69.3841 117.241 69.6584 116.85C69.9326 116.458 70.2814 116.125 70.6847 115.868C71.0879 115.611 71.5379 115.437 72.0087 115.354L218.206 89.4058L214.889 70.6697C214.712 69.6498 214.824 68.6008 215.212 67.6411C215.599 66.6813 216.248 65.849 217.083 65.2382C217.919 64.6273 218.909 64.2621 219.941 64.1839C220.973 64.1056 222.007 64.3174 222.925 64.7953L310.506 110.624C311.258 111.017 311.909 111.577 312.411 112.261C312.912 112.946 313.249 113.736 313.397 114.571C313.545 115.406 313.499 116.264 313.263 117.079C313.027 117.894 312.607 118.643 312.036 119.27L245.609 192.428C244.91 193.192 244.011 193.746 243.014 194.027C242.016 194.307 240.96 194.303 239.965 194.015C238.97 193.726 238.075 193.166 237.382 192.395C236.689 191.625 236.225 190.676 236.043 189.656L232.715 170.92L86.4968 196.858C86.2854 196.9 86.0704 196.922 85.8548 196.922ZM220.335 65.2126C219.387 65.2201 218.466 65.5273 217.703 66.09C217.02 66.5789 216.492 67.2525 216.179 68.0315C215.866 68.8106 215.782 69.6628 215.937 70.4878L219.362 89.7482C219.383 89.8884 219.35 90.0316 219.268 90.1475C219.186 90.2633 219.062 90.3427 218.923 90.3689L72.2655 116.403C71.5944 116.53 70.9993 116.913 70.607 117.473C70.2031 118.016 70.0301 118.696 70.1255 119.366L83.3188 193.701C83.4388 194.373 83.8205 194.97 84.3802 195.361C84.9398 195.753 85.6317 195.906 86.3042 195.787L233.004 169.754C233.143 169.732 233.285 169.764 233.4 169.843C233.516 169.923 233.596 170.044 233.625 170.182L237.038 189.442C237.183 190.268 237.556 191.036 238.116 191.66C238.676 192.283 239.4 192.737 240.206 192.969C241.011 193.201 241.865 193.202 242.671 192.972C243.477 192.742 244.202 192.29 244.764 191.668L311.234 118.51C311.692 118.003 312.029 117.398 312.218 116.74C312.406 116.083 312.442 115.391 312.322 114.718C312.203 114.045 311.93 113.408 311.526 112.856C311.123 112.304 310.598 111.852 309.992 111.534L222.422 65.7369C221.78 65.3938 221.063 65.2137 220.335 65.2126Z" fill="#231F20"/>
<path d="M218.554 83.5532C217.377 83.1573 216.178 82.8042 214.98 82.4832C214.236 82.2206 213.43 82.1908 212.669 82.3976C211.599 82.8149 211.053 84.0882 210.668 85.2118C210.101 86.9345 209.512 88.7749 210.004 90.5619C210.721 93.1085 213.439 94.5103 215.986 95.2058C217.233 95.601 218.552 95.7179 219.849 95.5482C227.414 94.1786 223.583 85.2439 218.554 83.5532Z" fill="white"/>
<path d="M218.794 96.152C217.797 96.1282 216.808 95.9735 215.852 95.6919C213.851 95.1569 210.362 93.7873 209.496 90.6842C208.939 88.7154 209.624 86.693 210.17 85.0559C210.587 83.804 211.154 82.4129 212.481 81.91C213.344 81.6578 214.265 81.684 215.113 81.9849C216.333 82.2845 217.553 82.6483 218.73 83.055C222.058 84.125 224.861 88.2232 224.615 91.5509C224.519 92.942 223.77 95.3709 219.95 96.0664C219.568 96.1263 219.181 96.155 218.794 96.152ZM213.508 82.8089C213.282 82.8051 213.058 82.8414 212.845 82.9159C211.946 83.2476 211.507 84.3711 211.165 85.3983C210.544 87.228 210.095 88.8652 210.501 90.3953C211.229 92.9848 214.332 94.1832 216.108 94.6754C217.279 95.0485 218.516 95.1653 219.736 95.0178C222.079 94.6005 223.385 93.37 223.524 91.476C223.738 88.6405 221.223 85.0559 218.366 84.0715C217.21 83.6863 216.023 83.3439 214.835 83.0015C214.403 82.8811 213.957 82.8164 213.508 82.8089Z" fill="#231F20"/>
<path d="M85.7351 122.718C86.0197 122.718 86.3008 122.656 86.559 122.536C89.2876 121.348 88.9024 116.309 89.1378 113.847C89.2662 112.467 89.2341 110.798 88.0678 110.081C85.4355 108.487 81.776 109.182 79.3899 110.937C77.0037 112.692 76.4794 116.009 76.7469 118.855C76.8432 119.989 76.9288 122.504 77.9561 123.21C79.3257 124.173 80.9414 121.52 80.9093 120.343V121.295C80.8938 121.734 80.9554 122.172 81.0912 122.59C81.1581 122.801 81.2761 122.993 81.4347 123.148C81.5934 123.302 81.7878 123.416 82.0007 123.478C82.6856 123.617 83.3062 123.018 83.5844 122.408C83.7813 121.742 84.0171 121.088 84.2906 120.45C84.0833 120.741 83.9935 121.1 84.0391 121.455C84.0847 121.81 84.2624 122.135 84.5367 122.365C84.8784 122.627 85.3056 122.753 85.7351 122.718Z" fill="white"/>
<path d="M82.2161 124.036C82.1093 124.046 82.0018 124.046 81.8951 124.036C81.5927 123.958 81.3146 123.806 81.0865 123.593C80.8584 123.38 80.6875 123.113 80.5896 122.816C80.5896 122.816 80.5896 122.741 80.5896 122.698C80.3124 123.126 79.9478 123.491 79.5196 123.768C79.2287 123.947 78.8896 124.032 78.5487 124.011C78.2078 123.99 77.8817 123.864 77.615 123.651C76.4915 122.87 76.3203 120.719 76.2133 119.296V118.91C75.9672 116.225 76.2133 112.587 79.0809 110.511C81.4029 108.788 85.2977 107.782 88.3473 109.623C89.8346 110.521 89.8239 112.49 89.6955 113.903C89.6955 114.352 89.6313 114.876 89.5992 115.444C89.4922 118.183 89.3317 121.928 86.7958 123.041C86.4591 123.191 86.0943 123.267 85.7258 123.265C85.1619 123.288 84.6084 123.11 84.1635 122.763L84.0351 122.581C83.897 122.968 83.6537 123.31 83.3324 123.567C83.0111 123.824 82.6245 123.986 82.2161 124.036ZM81.4243 120.334V121.275C81.4118 121.659 81.4624 122.042 81.5741 122.409C81.6107 122.536 81.6775 122.652 81.7689 122.747C81.8602 122.842 81.9733 122.913 82.0984 122.955C82.4622 123.03 82.8795 122.613 83.0721 122.163C83.1752 121.913 83.261 121.655 83.3289 121.393L83.4894 120.858C83.5474 120.57 83.6762 120.302 83.8639 120.077C83.9521 119.982 84.0714 119.923 84.1998 119.91C84.3282 119.897 84.4571 119.93 84.5627 120.005C84.6683 120.079 84.7435 120.189 84.7743 120.314C84.8052 120.44 84.7897 120.572 84.7306 120.687C84.6536 120.827 84.5892 120.974 84.538 121.125C84.5274 121.178 84.5274 121.233 84.538 121.286C84.5572 121.534 84.6724 121.764 84.859 121.928C85.0968 122.12 85.3999 122.212 85.7044 122.185C85.9174 122.18 86.1277 122.137 86.325 122.056C88.251 121.211 88.3901 117.851 88.465 115.39C88.465 114.802 88.465 114.256 88.5506 113.796C88.7218 112.02 88.4543 110.992 87.7267 110.586C85.2121 109.066 81.756 109.847 79.6373 111.41C77.2298 113.197 76.9837 116.439 77.1977 118.9V119.296C77.2833 120.291 77.4438 122.367 78.15 122.859C78.2488 122.928 78.3665 122.965 78.4871 122.965C78.6076 122.965 78.7253 122.928 78.8241 122.859C79.2192 122.575 79.5514 122.213 79.8 121.795C80.0485 121.377 80.2081 120.912 80.2686 120.43C80.2657 120.29 80.3179 120.154 80.4139 120.052C80.51 119.95 80.6422 119.89 80.7823 119.884C80.9244 119.884 81.0613 119.938 81.1648 120.036C81.2682 120.133 81.3305 120.267 81.3387 120.408L81.4243 120.334Z" fill="#231F20"/>
<path d="M326.932 107.5C326.932 107.5 333.502 139.076 325.723 141.131C315.161 143.977 271.291 133.213 271.291 133.213C271.291 133.213 259.841 136.027 257.84 133.009C255.839 129.992 257.84 125.776 258.846 125.519C259.852 125.262 268.476 124.663 268.476 124.663C268.476 124.663 261.457 119.495 263.661 119.099C265.866 118.703 273.709 121.303 273.709 121.303C273.709 121.303 316.681 124.513 316.285 122.288C315.889 120.062 313.899 111.694 313.899 111.694" fill="white"/>
<path d="M320.832 142.139C306.012 142.139 274.061 134.425 271.333 133.761C269.642 134.168 259.562 136.447 257.422 133.312C256.872 132.375 256.553 131.32 256.491 130.235C256.43 129.15 256.628 128.067 257.069 127.074C257.24 126.646 257.893 125.233 258.77 125.051C259.648 124.869 264.559 124.495 267.063 124.291C264.977 122.676 262.494 120.471 262.783 119.337C262.832 119.146 262.94 118.974 263.092 118.848C263.243 118.721 263.431 118.645 263.628 118.631C265.854 118.224 272.798 120.482 273.868 120.835C288.934 121.905 313.149 123.275 315.771 122.205C315.3 119.722 313.47 111.954 313.449 111.869C313.416 111.727 313.441 111.578 313.518 111.454C313.596 111.331 313.719 111.243 313.861 111.21C314.002 111.178 314.151 111.203 314.275 111.28C314.398 111.357 314.486 111.481 314.519 111.622C314.604 111.965 316.509 120.054 316.905 122.248C316.926 122.357 316.921 122.469 316.889 122.575C316.857 122.681 316.8 122.778 316.723 122.858C314.989 124.794 283.402 122.612 273.761 121.895H273.633C271.493 121.178 265.651 119.412 263.896 119.69C264.163 120.418 266.357 122.44 268.893 124.313C268.981 124.378 269.047 124.468 269.083 124.571C269.119 124.674 269.124 124.785 269.096 124.891C269.063 124.995 268.999 125.088 268.914 125.156C268.828 125.225 268.724 125.266 268.615 125.276C266.228 125.458 259.84 125.971 259.038 126.121C258.508 126.599 258.135 127.226 257.968 127.919C257.672 128.701 257.554 129.539 257.625 130.373C257.695 131.206 257.951 132.013 258.375 132.734C259.691 134.703 266.935 133.804 271.215 132.734C271.299 132.713 271.387 132.713 271.472 132.734C271.91 132.841 315.268 143.434 325.636 140.663C331.618 139.079 328.258 116.298 326.46 107.653C326.432 107.511 326.461 107.363 326.541 107.243C326.621 107.123 326.746 107.039 326.888 107.011C327.03 106.982 327.177 107.011 327.298 107.092C327.418 107.172 327.502 107.297 327.53 107.439C328.215 110.724 333.95 139.539 325.936 141.679C324.26 142.045 322.546 142.199 320.832 142.139Z" fill="#231F20"/>
<path d="M313.94 112.287C313.82 112.285 313.704 112.243 313.611 112.167C313.517 112.091 313.452 111.987 313.426 111.87L308.579 91.3572C308.561 91.289 308.558 91.218 308.568 91.1484C308.579 91.0788 308.604 91.0121 308.641 90.9522C308.677 90.8922 308.726 90.8404 308.784 90.7997C308.841 90.7589 308.906 90.7302 308.975 90.7152C309.112 90.6858 309.256 90.7106 309.375 90.7843C309.495 90.8581 309.581 90.9751 309.617 91.1111L314.464 111.623C314.496 111.761 314.473 111.906 314.398 112.026C314.324 112.146 314.205 112.232 314.068 112.265L313.94 112.287Z" fill="#231F20"/>
<path d="M202.282 57.4516C202.202 57.4508 202.123 57.431 202.053 57.3938C201.982 57.3566 201.921 57.303 201.875 57.2376C201.839 57.1842 201.813 57.1242 201.8 57.0609C201.786 56.9975 201.786 56.9322 201.797 56.8686C201.809 56.805 201.834 56.7443 201.869 56.6902C201.905 56.636 201.95 56.5893 202.004 56.5528C202.386 56.2984 202.688 55.9418 202.878 55.5237C203.067 55.1057 203.135 54.6429 203.074 54.1881C202.744 53.5092 202.507 52.7896 202.368 52.048C202.351 51.9369 202.373 51.8235 202.429 51.7265C202.486 51.6295 202.574 51.5548 202.679 51.5148C202.784 51.4748 202.899 51.4719 203.006 51.5067C203.113 51.5414 203.205 51.6116 203.266 51.7056C203.66 52.3612 203.918 53.0888 204.026 53.8457C204.152 54.1204 204.357 54.3514 204.615 54.5091C204.698 54.5469 204.791 54.56 204.882 54.5467C204.973 54.5335 205.059 54.4944 205.128 54.4342C206.102 53.8564 205.128 50.4216 204.208 48.2922C204.181 48.234 204.167 48.1711 204.165 48.1071C204.163 48.0431 204.173 47.9793 204.196 47.9196C204.219 47.8598 204.254 47.8052 204.298 47.7589C204.342 47.7127 204.395 47.6757 204.454 47.6502C204.574 47.5989 204.708 47.5958 204.83 47.6417C204.952 47.6876 205.051 47.7789 205.107 47.8963C205.556 48.9128 207.696 54.0383 205.631 55.2688C205.428 55.4128 205.19 55.5006 204.942 55.5231C204.694 55.5457 204.445 55.5022 204.219 55.3972C204.131 55.3619 204.048 55.3151 203.973 55.2581C203.78 56.1061 203.266 56.8463 202.539 57.3232C202.466 57.3886 202.378 57.433 202.282 57.4516Z" fill="#231F20"/>
<path d="M147.166 226.658C147.058 226.659 146.953 226.623 146.868 226.557C146.782 226.491 146.722 226.399 146.695 226.294L137.151 190.63C137.128 190.563 137.12 190.491 137.128 190.42C137.136 190.35 137.159 190.281 137.195 190.22C137.232 190.159 137.281 190.107 137.34 190.067C137.399 190.027 137.466 190 137.536 189.988C137.662 189.956 137.796 189.975 137.908 190.041C138.021 190.107 138.102 190.215 138.135 190.341L147.68 226.005C147.712 226.13 147.695 226.263 147.631 226.375C147.567 226.487 147.461 226.569 147.337 226.604L147.166 226.658Z" fill="white"/>
</svg>
